<svg version="1.1" xmlns="http://www.w3.org/2000/svg" xmlns:xlink="http://www.w3.org/1999/xlink" width="681.01439" height="415.86636" viewBox="0,0,681.01439,415.86636"><g transform="translate(167.61161,13.19971)"><g data-paper-data="{&quot;isPaintingLayer&quot;:true}" fill-rule="nonzero" stroke-linejoin="miter" stroke-miterlimit="10" stroke-dasharray="" stroke-dashoffset="0" style="mix-blend-mode: normal"><path d="M-33.24849,11.5503c0,-4.55249 1.22913,-8.8179 3.37364,-12.48248l0.49355,-1.82612l2.11409,-1.8258c1.59974,-1.85924 3.47102,-3.47814 5.5523,-4.79517l0.84143,-0.72669l0.938,-0.29845c3.42081,-1.78567 7.311,-2.7953 11.437,-2.7953h19.51952l3.86719,0.38672l0.08219,0.02615l0.08624,0.00118l3.79103,0.85604l0.69424,0.23141h4.99264l1.74652,0.17465l1.75366,0.0741l10.51051,1.5015l0.28046,0.0691l0.28823,0.0189l6.98851,1.16475h2.45613l1.87835,0.18783l1.88507,0.09997l17.64882,2.7152h14.00544l29.3037,-1.46519l25.41684,-1.49511l0.72819,0.02981l0.72518,-0.07252h12.39083l15.39844,-1.39986l1.12314,0.01012l1.11762,-0.11176h6.55828l5.10437,-1.02087l2.42717,-0.23796l2.4267,-0.24267h100.6006l0.94688,0.09469l0.95136,-0.02179l19.51952,1.5015l2.04707,0.36498l2.05744,0.30109l9.05612,2.26403h61.5177l0.82135,0.08214l0.82499,-0.02732l22.52252,1.5015l0.70693,0.11861l0.71659,0.01769l10.48303,1.31038h41.05343l5.10437,-1.02087l0.39852,-0.03907l0.38648,-0.10481l4.06097,-0.67683l0.20036,-0.14107l0.72913,-0.01384l4.01855,-0.66976l3.87815,-0.2543l4.75296,0.68388l1.44053,-0.02735l0.5666,0.31615l2.077,0.29885l9.6,5.84901l0.22584,0.49358l0.474,0.26448l5.06483,10.03586l0.13227,2.09422l0.26996,0.59001l-0.14214,1.43376l0.30268,4.79236l-0.56276,3.84552l-0.98808,3.95234l-0.07194,0.7257l-0.1566,0.18847l-0.28487,1.13949l-0.32151,0.89565l-0.2096,0.92823l-3.003,9.00901l-0.71799,1.60166l-0.62485,1.64024l-0.01922,0.03845l-0.71675,3.58377l-2.6571,18.5997v40.28311l-0.24267,2.4267l-0.23796,2.42717l-3.003,15.01502l-0.2499,0.81635l-0.14156,0.84193l-4.43523,16.26252l-2.20018,8.80071v21.52943l1.02087,5.10437l0.04632,0.47249l0.37322,0.72894l2.37782,4.59712l0.12076,1.65041l0.22876,0.84355l1.33901,8.03404l4.26478,17.05911l0.21618,1.47723l0.33167,1.45566l1.19753,9.5802l2.22801,6.68404l0.28117,1.2452l0.39954,1.21241l2.93237,13.19567l1.88427,7.53709l0.62498,0.93747l1.82336,3.43221l0.25982,0.90374l0.45532,0.82276l1.13763,3.71625l0.54128,2.70641l0.28709,0.43064l0.72202,1.3591l0.82181,1.30119l0.61121,1.22242l0.40947,0.47412l0.30172,0.94825l0.17911,0.35822l1.38357,3.63186l0.28501,1.81692l0.55763,1.75256l0.38672,3.86719v0.4005l0.15421,0.98307l-0.15421,0.60719v88.49983l0.15421,0.98307l-0.15421,0.60719v1.01225l-0.38672,3.86719l-2.70703,8.50781l-7.34766,8.50781l-14.30859,3.86719l-14.30859,-3.86719l-7.03417,-8.14482h-10.56759l-15.39844,1.39986l-1.12314,-0.01012l-1.11762,0.11176h-123.12312l-2.4267,-0.24267l-2.42717,-0.23796l-13.96181,-2.79236l-11.08362,-1.23151h-13.77495l-12.15112,1.35012l-0.34174,0.00376l-0.33607,0.06213l-18.01802,1.5015l-1.03017,-0.01703l-1.0252,0.10252h-54.32113l-13.65141,1.36514l-12.31087,1.36787l-6.4543,1.29086l-0.90116,0.08835l-0.88285,0.20116l-12.01201,1.5015l-0.5903,0.01458l-0.58132,0.10365l-19.51952,1.5015l-0.95136,-0.02179l-0.94688,0.09469h-106.11735l-0.60719,0.15421l-0.98307,-0.15421h-0.4005l-3.86719,-0.38672l-1.75256,-0.55763l-1.81692,-0.28501l-3.63186,-1.38357l-0.35822,-0.17911l-0.94825,-0.30172l-0.47412,-0.40947l-2.65219,-1.32609l-2.83584,-0.94528l-1.60166,-0.71799l-1.64024,-0.62485l-8.12849,-4.06424l-0.96666,-0.26798l-1.3459,-1.07672l-1.85393,-1.1709l-1.80514,-1.75636l-1.96669,-1.57335l-1.39181,-1.69438l-1.23535,-1.20196l-0.38581,-0.92595l-2.45693,-3.68539l-1.82336,-3.43221l-0.09697,-0.33729l-0.18435,-0.29864l-1.3131,-3.65793l-3.003,-12.01201l-0.27869,-1.90435l-0.07357,-0.23121l-0.08574,-0.85738l-0.12477,-0.85257l0.01529,-0.24215l-0.19151,-1.91509v-78.07808l0.20316,-2.03156l0.13359,-2.03732l1.4542,-8.72517l1.46081,-10.22565l0.0691,-0.28046l0.0189,-0.28823l1.5015,-9.00901l0.25896,-0.95491l0.14326,-0.97897l1.42253,-5.69013l2.343,-10.5435v-7.79365l0.13886,-1.38856l-0.01089,-0.12148l0.14077,-1.17732l0.11798,-1.17982l0.03698,-0.11622l0.16567,-1.38562l2.79681,-12.58563l1.11833,-7.82829v-32.77561l0.19151,-1.91509l-0.01529,-0.24215l0.12477,-0.85257l0.08574,-0.85738l0.07357,-0.23121l0.27869,-1.90435l2.26403,-9.05612v-7.46365l0.26992,-2.69923l-0.0082,-0.27549l0.08012,-0.44377l0.04487,-0.44871l0.08357,-0.26264l0.482,-2.66952l2.57527,-9.01344l2.47845,-16.10995v-37.27679l-5.09094,-21.6365l-0.59026,-1.77077l-0.71488,-1.42977l-1.38357,-3.63186l-0.91256,-5.81758l-0.95411,-0.82401l-0.49355,-1.82612c-2.14451,-3.66458 -3.37364,-7.92999 -3.37364,-12.48248z" fill="#0400ff" stroke="none" stroke-width="0.5" stroke-linecap="butt"/><path d="M-165.38569,72.33195c-0.1131,2.47762 -0.82046,4.85842 -1.62715,7.22615c-0.20181,-2.45902 -0.40173,-4.91819 -0.59876,-7.37765l2.29181,-1.38374c-0.02059,0.5118 -0.04254,1.02354 -0.0659,1.53524z" fill="#0400ff" stroke="none" stroke-width="0.5" stroke-linecap="butt"/><path d="M-8.49849,353.89264l510.51051,1.5015" fill="none" stroke="#00bb7c" stroke-width="20" stroke-linecap="round"/><path d="M189.69971,31.06982h82.58258" fill="none" stroke="#e40000" stroke-width="20" stroke-linecap="round"/><path d="M315.82584,106.14489h-28.52853" fill="none" stroke="#ad3030" stroke-width="20" stroke-linecap="round"/><path d="M420.93094,79.11787l-25.52553,37.53754" fill="none" stroke="#ad3030" stroke-width="20" stroke-linecap="round"/><path d="M341.35136,224.76352l-30.03003,-57.05706" fill="none" stroke="#ad3030" stroke-width="20" stroke-linecap="round"/><path d="M182.1922,125.66442l46.54655,-15.01502" fill="none" stroke="#ad3030" stroke-width="20" stroke-linecap="round"/><path d="M80.0901,121.15991l-12.01201,-40.54054" fill="none" stroke="#ad3030" stroke-width="20" stroke-linecap="round"/><path d="M32.04205,182.72147l-13.51351,-70.57057" fill="none" stroke="#ad3030" stroke-width="20" stroke-linecap="round"/><path d="M126.63664,173.71247c0,0 6.42806,3.37423 0.99126,1.95594c-6.01598,-1.56939 -32.52279,-9.46345 -32.52279,-9.46345" fill="none" stroke="#ad3030" stroke-width="20" stroke-linecap="round"/><path d="M215.22524,196.23499l34.53453,-30.03003" fill="none" stroke="#ad3030" stroke-width="20" stroke-linecap="round"/><path d="M116.12614,272.81157l-40.54054,-46.54655" fill="none" stroke="#ad3030" stroke-width="20" stroke-linecap="round"/><path d="M272.28229,254.79354h-45.04505" fill="none" stroke="#ad3030" stroke-width="20" stroke-linecap="round"/><path d="M279.7898,230.76951l-9.00901,-34.53453" fill="none" stroke="#ad3030" stroke-width="20" stroke-linecap="round"/><path d="M368.37839,250.28904l28.52853,-36.03604" fill="none" stroke="#ad3030" stroke-width="20" stroke-linecap="round"/><path d="M393.90391,284.82357l49.54955,-21.02102" fill="none" stroke="#ad3030" stroke-width="20" stroke-linecap="round"/><path d="M329.33934,290.82958h-58.55856" fill="none" stroke="#ad3030" stroke-width="20" stroke-linecap="round"/><path d="M189.69972,308.8476c0,0 -25.83591,-13.41961 -28.53627,-20.44055c-2.20247,-5.72641 -5.99827,-18.59849 -5.99827,-18.59849" fill="none" stroke="#ad3030" stroke-width="20" stroke-linecap="round"/><path d="M57.56758,292.33108l-15.01502,-30.03003" fill="none" stroke="#ad3030" stroke-width="20" stroke-linecap="round"/><path d="M477.98799,154.19294l-34.53453,1.5015" fill="none" stroke="#ad3030" stroke-width="20" stroke-linecap="round"/></g></g></svg>