<svg version="1.1" xmlns="http://www.w3.org/2000/svg" xmlns:xlink="http://www.w3.org/1999/xlink" width="572.5359" height="404.64561" viewBox="0,0,572.5359,404.64561"><g transform="translate(30.49537,18.10995)"><g data-paper-data="{&quot;isPaintingLayer&quot;:true}" fill-rule="nonzero" stroke-linejoin="miter" stroke-miterlimit="10" stroke-dasharray="" stroke-dashoffset="0" style="mix-blend-mode: normal"><path d="M-22.98798,19.05781c0,-1.89815 0.21154,-3.74689 0.61234,-5.52394l0.08087,-1.10519l0.45262,-0.87506c1.22124,-3.88589 3.3658,-7.36277 6.17651,-10.17349l3.003,-3.003l1.50463,-1.23106l0.16203,-0.18388l0.69806,-0.51983l0.67362,-0.55114l0.21769,-0.1126l1.55923,-1.16113l7.03451,-4.2207l0.8354,-0.72148l1.73751,-0.55284l1.45065,-0.68427l2.73114,-0.6463l2.67445,-0.85096l1.59598,-0.1596l1.77434,-0.41988l1.08754,0.18885h18.96791l1.93443,0.19344l0.2446,-0.01545l0.86118,0.12603l0.86604,0.0866l0.23355,0.07431l1.92359,0.2815l6.00601,1.5015l1.32669,0.47625l0.12171,0.01909l0.68177,0.25972h41.28135l3.02026,-0.75506l1.92359,-0.2815l0.23355,-0.07431l0.86604,-0.0866l0.86118,-0.12603l0.2446,0.01545l1.93443,-0.19344h4.42987l3.02026,-0.75506l1.92359,-0.2815l0.23355,-0.07431l0.86604,-0.0866l0.86118,-0.12603l0.2446,0.01545l1.93443,-0.19344h94.59459l2.05208,0.20521l2.05789,0.13494l9.00901,1.5015l0.39038,0.10587l0.40255,0.03947l7.50751,1.5015l1.48644,0.45503l1.51635,0.3424l0.65575,0.21858h115.65285l17.47549,-2.68854l8.45725,-1.40954l7.11221,-1.42244l2.45169,-0.24036l2.45122,-0.24512h1.44656l10.25,-1.28125l10.29343,-1.47049l1.77138,-0.07485l1.76416,-0.17642h77.56871l0.61332,-0.15576l0.993,0.15576h0.40454l3.90625,0.39063l1.77027,0.56327l1.83527,0.28789l3.66855,1.39754l0.36183,0.18092l0.95783,0.30476l0.47891,0.41361l1.20443,0.60221l3.31916,2.09631l1.7299,1.68314l2.90818,1.62268l1.19672,2.37127l0.62884,0.61185l1.51533,3.63679l1.77509,3.51732l0.0553,0.87564l1.02159,2.45182l-0.66059,3.26408l0.15214,2.40881l-0.56844,3.88436l-1.36772,5.47087l-0.08055,1.10088l-0.83769,1.61953l-0.54191,1.50962l-1.4742,2.38821l-1.2894,2.49284l-1.01567,1.24138l-0.95775,1.55155l-0.90255,0.63547l-1.38972,1.38972l-0.3924,1.96199l-0.45503,1.48644l-0.3424,1.51635l-0.21858,0.65575v12.45958l-0.24512,2.45122l-0.24036,2.45169l-1.5015,7.50751l-0.71179,2.32519l-0.0445,0.2837l-0.21557,0.56588l-0.04415,0.14423v98.38471l-0.39062,3.90625l-0.02641,0.08302l-0.00119,0.08711l-0.86469,3.82932l-1.5015,4.5045l-0.72524,1.61784l-0.63116,1.65681l-0.53833,1.07666l-0.21598,2.15976l-0.56327,1.77027l-0.28789,1.83527l-0.35275,0.92597l-0.2976,2.976l-0.02641,0.08302l-0.00119,0.08711l-0.86469,3.82932l-0.21858,0.65575v55.72792l0.72119,5.04832l1.04004,2.7301l0.28789,1.83527l0.56327,1.77027l0.2976,2.976l0.35275,0.92597l0.28789,1.83527l0.56327,1.77027l0.09401,0.94007l0.55634,1.4604l0.28789,1.83527l0.56327,1.77027l0.2976,2.976l0.35275,0.92597l0.28789,1.83527l0.56327,1.77027l0.39063,3.90625v0.40454l0.15576,0.993l-0.15576,0.61332v3.9205l0.5222,2.0888l1.19788,3.59365l0.86469,3.82932l0.00119,0.08711l0.02641,0.08302l0.39063,3.90625v1.42686l0.75506,3.02026l0.2815,1.92359l0.07431,0.23355l0.0866,0.86604l0.12603,0.86118l-0.01545,0.2446l0.181,1.81003l0.7675,3.07001l0.08637,0.59016l0.17459,0.57032l0.1556,0.778l0.20133,0.38925l1.50805,1.74617l0.96683,3.0386l1.46497,2.83227l0.16837,2.30108l0.13421,0.4218l0.39063,3.90625v2.84467l0.13544,1.85096l-0.13544,0.23576v5.57912l-0.19344,1.93443l0.01545,0.2446l-0.12603,0.86118l-0.0866,0.86604l-0.07431,0.23355l-0.2815,1.92359l-1.5015,6.00601l-0.47625,1.32669l-0.01909,0.12171l-0.42637,1.11922l-0.40466,1.12726l-0.06471,0.10483l-0.50181,1.31724l-1.5015,3.003l-2.09631,3.31916l-0.06075,0.06244l-0.04002,0.07738l-1.9585,2.39372l-0.11435,0.42309l-1.4046,1.21306l-2.01148,2.01148l-3.03835,2.48592l-0.39315,0.20336l-1.74617,1.50805l-3.0386,0.96683l-2.83227,1.46497l-2.30108,0.16837l-0.4218,0.13421l-3.90625,0.39063h-2.84467l-1.85096,0.13544l-0.23576,-0.13544h-7.08062l-3.90625,-0.39062l-8.59375,-2.73437l-0.42702,-0.36879l-1.52611,-0.41246l-3.07736,-3.56326l-3.56326,-3.07736l-0.41246,-1.52611l-0.36879,-0.42702l-0.4583,-1.44037l-1.1045,-1.07465h-3.07987l-0.61332,0.15576l-0.993,-0.15576h-0.40454l-3.90625,-0.39062l-1.77027,-0.56327l-1.83527,-0.28789l-0.68177,-0.25972h-4.63389l-0.68177,0.25972l-1.83527,0.28789l-1.77027,0.56327l-3.90625,0.39063h-0.40454l-0.993,0.15576l-0.61332,-0.15576h-25.01616l-1.93443,-0.19344l-0.2446,0.01545l-0.86118,-0.12603l-0.86604,-0.0866l-0.23355,-0.07431l-1.92359,-0.2815l-9.02626,-2.25657h-11.93737l-2.45122,-0.24512l-2.45169,-0.24036l-12.5876,-2.51752h-6.53352l-1.93443,-0.19344l-0.2446,0.01545l-0.86118,-0.12603l-0.86604,-0.0866l-0.23355,-0.07431l-1.92359,-0.2815l-6.00601,-1.5015l-1.32669,-0.47625l-0.12171,-0.01909l-0.68177,-0.25972h-29.79153l-0.65575,0.21858l-3.82932,0.86469l-0.08711,0.00119l-0.08302,0.02641l-3.90625,0.39063h-13.23832l-8.75167,1.25024l-1.77138,0.07485l-1.76416,0.17642h-45.57256l-5.08009,1.01602l-0.40255,0.03947l-0.39038,0.10587l-9.00901,1.5015l-1.49365,0.09794l-1.48113,0.21642l-33.03303,1.5015l-0.56859,-0.03087l-0.5666,0.05666h-15.11932l-0.72737,0.36368l-2.27239,0.86567l-0.25126,0.13905l-0.57902,0.17725l-0.56588,0.21557l-0.2837,0.0445l-2.32519,0.71179l-7.50751,1.5015l-0.40255,0.03947l-0.39038,0.10587l-9.00901,1.5015l-2.05789,0.13494l-2.05208,0.20521h-27.02703l-1.76416,-0.17642l-1.77138,-0.07485l-8.75167,-1.25024h-61.28637l-1.76416,-0.17642l-1.77138,-0.07485l-8.75167,-1.25024h-2.72781l-3.90625,-0.39062l-8.59375,-2.73437l-0.42702,-0.36879l-1.52611,-0.41246l-3.07736,-3.56326l-3.56326,-3.07736l-0.41246,-1.52611l-0.36879,-0.42702l-2.73437,-8.59375l-0.39062,-3.90625v-3.99514l-0.15576,-0.61332l0.15576,-0.993v-0.40454l0.39063,-3.90625l0.56327,-1.77027l0.28789,-1.83527l0.25972,-0.68177v-24.3301l-0.15576,-0.61332l0.15576,-0.993v-0.40454l0.39063,-3.90625l0.56327,-1.77027l0.28789,-1.83527l0.55634,-1.4604l0.09401,-0.94007l0.27498,-0.86421l-0.75507,-3.0203l-0.27421,-0.54842l-0.63116,-1.65681l-0.72524,-1.61784l-1.5015,-4.5045l-0.3424,-1.51635l-0.45503,-1.48644l-3.003,-15.01502l-0.24036,-2.45169l-0.24512,-2.45122v-6.46764l-1.32997,-15.95962l-1.16875,-7.01248l-1.25935,-5.03741l-0.2815,-1.92359l-0.07431,-0.23355l-0.0866,-0.86604l-0.12603,-0.86118l0.01545,-0.2446l-0.19344,-1.93443v-34.9821l-0.21858,-0.65575l-0.86469,-3.82932l-0.00119,-0.08711l-0.02641,-0.08302l-0.39062,-3.90625v-15.13189l-1.34859,-12.13735l-0.01521,-1.38379l-0.1377,-1.377v-100.6006l0.39062,-3.90625l2.73438,-8.59375l0.36879,-0.42702l0.41246,-1.52611l3.56326,-3.07736l1.71272,-1.98315c-0.33547,-0.86741 -0.62395,-1.75821 -0.86231,-2.66929l-0.94785,-1.64997l0.20555,-2.80913c-0.04646,-0.62276 -0.07011,-1.25187 -0.07011,-1.88651z" fill="#0400ff" stroke="none" stroke-width="0.5" stroke-linecap="butt"/><path d="M-13.003,348.10436l543.54355,4.5045" fill="none" stroke="#e40000" stroke-width="23" stroke-linecap="round"/><path d="M185.1952,255.01126l3.00301,-91.59159l286.78679,-4.5045l3.00301,175.67568" fill="none" stroke="#000000" stroke-width="11" stroke-linecap="round"/><path d="M185.1952,158.91517l151.65165,-73.57358l138.13814,76.57658" fill="none" stroke="#000000" stroke-width="11" stroke-linecap="round"/><path d="M183.6937,265.52177l-1.5015,67.56757" fill="none" stroke="#820000" stroke-width="11" stroke-linecap="round"/><path d="M394.8457,157.52121c-1.31493,0.04648 -2.62987,0.09297 -3.9448,0.13945c0,0 -3.1017,0 -3.24489,-3.03011c-4.14924,2.47735 -9.20318,3.91485 -14.87709,3.91485c-1.86106,0 -4.06595,-0.21496 -6.29591,-0.568c-2.95192,2.46438 -6.72093,4.26874 -11.42703,5.05218c-2.79122,0.46465 -5.4732,0.25048 -8.06599,-0.36069c-3.4508,-0.46502 -6.67834,-1.63408 -9.53327,-3.35787c-0.35244,0.20273 -0.70369,0.62448 -1.07972,0.76288c-1.35403,0.49833 -2.6508,1.156 -4.03038,1.57846c-4.83614,1.48096 -10.15169,1.39755 -15.12326,1.39755c-5.98008,0 -14.35176,-2.66393 -20.20012,-7.00322c-3.41399,9.10947 -14.23046,9.10947 -14.23046,9.10947l-11.08164,-6.16967c-2.08085,1.0646 -4.43848,1.66516 -6.93638,1.66516c-2.4263,0 -4.72025,-0.56662 -6.75676,-1.57476c-2.03651,1.00814 -4.33046,1.57476 -6.75676,1.57476c-0.28603,0 -0.57023,-0.00787 -0.85238,-0.02342c-2.01107,0.97695 -4.26911,1.52492 -6.65513,1.52492c-4.35962,0 -8.29197,-1.82938 -11.07128,-4.76237c-1.17507,2.82965 -2.68937,2.86329 -6.20004,4.68744c-4.2509,0.09856 -8.50645,0.13173 -12.75871,0.08694c-1.75054,-0.01844 -3.5321,0.24388 -5.2512,-0.08694c-1.09899,-0.21149 -1.92327,-1.20709 -3.003,-1.5015c-3.41524,-0.93123 -9.82143,1.39261 -6.52242,-7.87469c0.49258,-1.3837 6.91747,-1.75069 8.77062,-1.54137c0.45789,0.05172 0.94932,0.79079 1.29438,0.48538c0.5527,-0.48919 0.13696,-1.54361 0.57359,-2.1387c1.04276,-1.42117 2.31581,-2.69954 3.73923,-3.73923c1.49061,-1.08876 3.11373,-1.71648 4.80571,-2.03369l0.09761,-0.08128c0.02471,0.01683 0.04966,0.03352 0.07482,0.05006c1.92229,-0.33574 3.93021,-0.27943 5.93118,-0.05006c0.3315,0.038 0.67904,0.0509 1.03336,0.05488c0.80842,-0.12755 1.56742,-0.09764 2.27292,0.0608c0.43572,0.05058 0.85019,0.14295 1.22411,0.31083c1.32415,-7.07337 7.5315,-12.42651 14.98913,-12.42651c0.28603,0 0.57023,0.00787 0.85238,0.02342c0.23704,-0.11515 0.4775,-0.22434 0.72121,-0.32738c2.15658,-11.70806 14.94293,-11.70806 14.94293,-11.70806h1.19089c2.76263,-2.78196 6.59072,-4.5045 10.82112,-4.5045c0.28604,0 0.57023,0.00787 0.85238,0.02342c2.01107,-0.97696 4.26911,-1.52492 6.65513,-1.52492c1.10946,0 2.19125,0.11847 3.23341,0.34346c2.16272,-1.17655 4.64186,-1.84497 7.27711,-1.84497c0.16586,0 0.33112,0.00265 0.4957,0.00791c2.72044,-3.81902 6.7078,-6.50438 12.61962,-8.47499c2.21106,-0.73702 4.54248,-1.14886 6.90135,-1.29694c3.64236,-10.56281 13.74364,-18.88818 27.02073,-16.83295c9.46347,1.46491 17.43999,9.89754 22.53116,17.19722c1.19148,1.70833 7.16948,1.21981 9.13265,1.84446c2.85343,0.90791 5.59273,3.44071 8.34906,4.10792c3.22179,0.77988 6.67998,1.14202 9.53382,2.82838c3.25862,1.92554 6.71586,4.13557 8.59375,7.42188c0.43819,0.76684 0.83957,1.53481 1.20504,2.30264c0.56627,-0.06376 1.14193,-0.09651 1.72524,-0.09651c5.18236,0 9.76096,2.58501 12.51672,6.53593c1.27472,-0.34554 2.61572,-0.52993 3.99979,-0.52993c7.89241,0 14.3845,5.9955 15.17021,13.68045c1.2105,0.08373 2.41687,0.12357 3.60261,-0.092c1.48948,-0.27079 2.80563,-1.92943 4.27029,-1.54648c1.99227,0.52091 3.3244,2.45684 4.78051,3.91294c1.76011,1.76011 3.31076,3.19588 3.89436,4.73071c0.41912,0.23098 0.83781,0.46315 1.26699,0.6665l1.79656,4.40839c0,0 0,3.25 -3.25,3.25c-1.80272,0 -2.6055,-0.99994 -2.96299,-1.89052c-1.15044,0.47993 -6.24099,0.38902 -7.54752,0.38902c-2.91199,0 -6.95052,0.60674 -9.75571,-0.08694c-0.13505,-0.03339 -0.64822,-0.26728 -1.33667,-0.59654c-2.6679,2.29045 -6.13664,3.67447 -9.92864,3.67447c-3.04324,0 -5.87828,-0.89141 -8.25826,-2.42737c-2.37998,1.53596 -5.21502,2.42737 -8.25826,2.42737c-1.10663,0 -2.18574,-0.11787 -3.22544,-0.34175zM222.93986,155.67377c-0.02589,0.02331 -0.05067,0.04755 -0.07443,0.07265c0.2277,-0.00599 0.4538,-0.01026 0.67804,-0.0125c-0.22312,-0.1358 -0.43497,-0.21202 -0.60362,-0.06015z" fill="#000000" stroke="none" stroke-width="0.5" stroke-linecap="butt"/><path d="M485.75,339.05424c0,1.79493 -1.45507,3.25 -3.25,3.25c-1.7138,0 -3.11778,-1.32652 -3.24119,-3.00881c-0.40891,-0.03 -0.7968,-0.13565 -1.14973,-0.30302c-0.59237,0.79612 -1.5405,1.31184 -2.60909,1.31184c-1.79493,0 -3.25,-1.45507 -3.25,-3.25c0,-1.79493 1.45507,-3.25 3.25,-3.25c0.49769,0 0.96925,0.11187 1.39091,0.31184c0.59237,-0.79612 1.5405,-1.31184 2.60909,-1.31184c1.7138,0 3.11778,1.32652 3.24119,3.00881c1.68229,0.12341 3.00881,1.52738 3.00881,3.24119z" fill="#000000" stroke="none" stroke-width="0.5" stroke-linecap="butt"/></g></g></svg>