<svg version="1.1" xmlns="http://www.w3.org/2000/svg" xmlns:xlink="http://www.w3.org/1999/xlink" width="820.27022" height="583.18881" viewBox="0,0,820.27022,583.18881"><g transform="translate(187.40235,94.33749)"><g data-paper-data="{&quot;isPaintingLayer&quot;:true}" fill-rule="nonzero" stroke-linejoin="miter" stroke-miterlimit="10" stroke-dasharray="" stroke-dashoffset="0" style="mix-blend-mode: normal"><path d="M499.00901,356.89565h-498.4985l41.2913,-22.32921" fill="none" stroke="#e40000" stroke-width="0.5" stroke-linecap="round"/><path d="M-176.89189,-60.32845c0,-1.89815 0.21154,-3.74689 0.61234,-5.52394l0.08087,-1.10519l0.45262,-0.87506c1.14939,-3.65727 3.11664,-6.95223 5.68737,-9.67051l0.07606,-0.28144l1.4046,-1.21306l2.01148,-2.01148l3.03835,-2.48592l0.39315,-0.20336l1.74617,-1.50805l3.0386,-0.96683l2.83227,-1.46497l2.30108,-0.16837l0.4218,-0.13421l3.90625,-0.39062h2.84467l1.85096,-0.13544l0.23576,0.13544h43.11666l1.2407,0.12407h1.24689l13.77431,1.37743h133.88824l1.377,0.1377l1.38379,0.01521l12.13735,1.34859h6.12288l2.05208,0.20521l2.05789,0.13494l17.09915,2.84986l15.4952,1.40865l16.88809,1.40734h44.00518l1.1289,0.11289l1.13449,-0.01022l24.08078,2.18916l0.74074,-1.77777l2.1205,-2.06319l1.38652,-2.64622l3.07997,-1.65744l3.19581,-2.01841l6.00601,-3.003l3.66855,-1.39754l0.72099,-0.1131l0.67256,-0.28334l3.85484,-0.74268l16.51652,-1.5015l1.13449,0.01022l1.1289,-0.11289h369.36937l3.90625,0.39063l8.59375,2.73438l0.42702,0.36879l1.52611,0.41246l3.07736,3.56326l3.56326,3.07736l0.41246,1.52611l0.36879,0.42702l2.73438,8.59375l0.39063,3.90625v9.00901l-0.39062,3.90625l-0.02641,0.08302l-0.00119,0.08711l-0.86469,3.82932l-1.5015,4.5045l-0.72524,1.61784l-0.63116,1.65681l-1.5015,3.003l-2.09631,3.31916l-0.06075,0.06244l-0.04002,0.07738l-2.48592,3.03835l-0.55936,0.55936l-0.13247,0.29551l-0.63116,1.65681l-0.70694,1.41388l-0.93966,2.81898l-0.9947,2.21895l-0.07935,0.27599l-0.28409,0.53477l-0.2477,0.55257l-0.16914,0.23207l-0.68542,1.29019l-0.54261,2.40298l-1.19788,3.59365l-0.5222,2.0888v1.42686l-0.17642,1.76416l-0.07485,1.77138l-1.42684,9.98788l-1.3249,13.249v66.26573l1.30845,10.46759l0.03837,1.55405l0.15468,1.54681v7.62438l1.32969,11.96718l1.48026,11.84211l0.03837,1.55405l0.15468,1.54681v97.5976l-0.13053,1.30531l-0.00683,1.31181l-2.94744,28.00064l-1.46839,23.49425l-0.20738,1.26821l-0.08409,1.2823l-4.42066,26.52397l-4.42001,35.36008l-1.32969,11.96718v32.17592l1.01602,5.08009l0.02454,0.25027l2.5607,2.21152l0.41246,1.52611l0.36879,0.42702l2.73438,8.59375l0.39063,3.90625v0.44756l1.72009,5.16026l0.39842,1.76445l0.08446,0.20479l0.17263,0.93379l0.20916,0.92629l0.00303,0.2215l0.32884,1.77874l1.5015,18.01802l-0.0172,1.04058l0.10356,1.03556v12.01201l-0.20521,2.05208l-0.13494,2.05789l-1.14233,6.854l0.31144,1.53889l-1.44214,3.46113l-0.25596,0.94387l-0.73746,1.44036l-1.93175,4.63621l-0.88073,0.85693l-0.56002,1.0938l-3.86309,3.20977l-1.15979,1.12844l-0.82685,0.52222l-2.88397,2.39624l-1.56243,0.1549l-1.04892,0.52446l-3.66855,1.39754l-0.57609,0.09037l-2.24007,1.28685l-4.06664,-0.29756l-2.02653,0.31789l-2.57841,-0.65483l-2.65317,-0.19413l-1.82201,-0.94242l-3.95205,-1.0037l-1.71818,-1.92918l-0.51795,-0.26791l-3.03835,-2.48592l-6.00601,-6.00601l-2.48592,-3.03835l-0.04002,-0.07738l-0.06075,-0.06244l-2.09631,-3.31916l-2.09918,-4.19836h-37.1017l-0.77806,-0.07781l-0.7814,0.02912l-24.02402,-1.5015l-0.17782,-0.02908l-0.18013,0.00413l-18.56223,-1.42786h-138.67952l-0.62305,-0.06231l-0.62539,0.03111l-30.03003,-1.5015l-1.82134,-0.27457l-1.83313,-0.17972l-5.08009,-1.01602h-136.59659l-6.9681,1.16135l-2.05789,0.13494l-2.05208,0.20521h-3.45057l-5.16026,1.72009l-3.82932,0.86469l-0.08711,0.00119l-0.08302,0.02641l-3.90625,0.39063h-109.60961l-1.93443,-0.19344l-0.2446,0.01545l-0.86118,-0.12603l-0.86604,-0.0866l-0.23355,-0.07431l-1.92359,-0.2815l-9.02626,-2.25657h-8.93437l-1.03556,-0.10356l-1.04058,0.0172l-18.01802,-1.5015l-0.33946,-0.06276l-0.34519,-0.00379l-44.02188,-4.89132l-8.35658,13.92764l-2.34471,3.14861l-0.67771,0.59719l-0.52428,0.73556l-2.89062,2.65625l-6.00601,4.5045l-3.35938,2.03125l-1.67414,0.58364l-2.52383,1.84826l-3.11391,0.11719l-1.20374,0.41965l-3.51175,-0.24219l-3.5176,0.13238l-1.19005,-0.45705l-3.10873,-0.2144l-2.46487,-1.92619l-1.65509,-0.63565l-3.29429,-2.13519l-6.88245,-5.50596l-14.30619,-10.01434l-19.28598,-13.35183l-2.80433,-1.86956l-2.06697,-0.2067l-1.62036,-0.51557l-3.20708,-0.46145l-1.92032,-1.17l-1.84598,-0.58736l-2.11251,-1.82444l-3.81816,-2.3263l-0.73469,-1.60571l-1.92839,-1.66543l-1.68327,-6.22811l-1.88283,-4.11504l0.20682,-2.08618l-0.54697,-2.02379l1.1807,-4.36859l0.63648,-6.4201l1.62836,-1.9598l0.46071,-1.70464l3.38377,-2.92235l1.78383,-2.14691l1.72431,-0.88285l1.70184,-1.46977l3.08759,-0.98241l1.51356,-0.77494l3.78888,-1.02749l9.00901,-1.5015l2.05789,-0.13494l2.05208,-0.20521h8.95407l10.46759,-1.30845l2.33697,-0.0577l0.28026,-0.04812l0.65351,0.02507l0.36586,-0.00903l-2.60678,-15.64069l-1.42244,-7.11221l-0.24036,-2.45169l-0.24512,-2.45122v-5.73081l-1.25024,-8.75167l-0.07485,-1.77138l-0.17642,-1.76416v-217.71772l0.14026,-1.40259l-0.011,-0.1227l0.14219,-1.18922l0.11917,-1.19174l0.03735,-0.1174l0.16735,-1.39962l2.40768,-10.83456v-115.87431l0.10356,-1.03556l-0.0172,-1.04058l1.41515,-16.98175v-3.46464l0.19344,-1.93443l-0.01545,-0.2446l0.12603,-0.86118l0.0866,-0.86604l0.07431,-0.23355l0.2815,-1.92359l0.75506,-3.02026v-6.45689h-10.45181l-4.46561,2.3098l-1.10519,0.08087c-1.77704,0.40079 -3.62579,0.61234 -5.52394,0.61234c-0.63464,0 -1.26375,-0.02365 -1.88651,-0.07011l-2.80913,0.20555l-1.64997,-0.94785c-8.70776,-2.27821 -15.56377,-9.13423 -17.84198,-17.84198l-0.94785,-1.64997l0.20555,-2.80913c-0.04646,-0.62276 -0.07011,-1.25187 -0.07011,-1.88651z" fill="#0400ff" stroke="none" stroke-width="0.5" stroke-linecap="butt"/><path d="M-0.24024,352.58446l477.47748,3.003" fill="none" stroke="#e40000" stroke-width="13" stroke-linecap="round"/><path d="M107.86786,349.58146l6.00601,-235.73574l256.75676,-1.5015v234.23423" fill="none" stroke="#e40000" stroke-width="13" stroke-linecap="round"/><path d="M98.85886,340.57245l-99.0991,-1.5015" fill="none" stroke="#bf00fa" stroke-width="13.5" stroke-linecap="round"/><path d="M379.63964,339.07095l97.5976,1.5015" fill="none" stroke="#af05e3" stroke-width="13" stroke-linecap="round"/><text transform="translate(132.64264,221.35511) scale(0.6551,1.75261)" font-size="40" xml:space="preserve" fill="#ff0000" fill-rule="nonzero" stroke="none" stroke-width="1" stroke-linecap="butt" stroke-linejoin="miter" stroke-miterlimit="10" stroke-dasharray="" stroke-dashoffset="0" font-family="Sans Serif" font-weight="normal" text-anchor="start" style="mix-blend-mode: normal"><tspan x="0" dy="0">kies de juiste weg</tspan><tspan x="0" dy="46.150000000000006px"> </tspan></text></g></g></svg>