<svg version="1.1" xmlns="http://www.w3.org/2000/svg" xmlns:xlink="http://www.w3.org/1999/xlink" width="638.69846" height="426.5671" viewBox="0,0,638.69846,426.5671"><g transform="translate(47.12185,20.19076)"><g data-paper-data="{&quot;isPaintingLayer&quot;:true}" fill-rule="nonzero" stroke-linejoin="miter" stroke-miterlimit="10" stroke-dasharray="" stroke-dashoffset="0" style="mix-blend-mode: normal"><path d="M-7.48498,-6.03791c0.62393,-0.35945 1.3134,-0.63046 2.04482,-0.84044c3.18101,-1.46654 6.72257,-2.28456 10.45518,-2.28456c0.39129,0 0.78049,0.00899 1.16739,0.02677c0.01388,-0.00886 0.0277,-0.01779 0.04147,-0.02677c0.68034,-0.44421 1.63019,-2.25097 2.57386,-2.56655c2.4977,-0.83526 11.42812,-4.43834 14.48064,-3.80299c4.36438,0.90839 8.71599,1.8995 13.01108,3.0933c0.94333,0.26219 3.29825,3.27364 3.42294,3.27624c36.97468,0.77258 73.96554,-0.04534 110.94827,0c18.11579,0.02221 36.90296,4.37841 55.09392,4.5045c62.39028,0.43247 124.78443,0.32972 187.17534,0c5.73667,-0.03032 18.50846,-2.53625 24.03799,-4.25835c2.71896,-0.84679 5.05994,-3.1293 7.84441,-4.05745c16.41637,-5.47212 32.57597,-10.26073 49.66216,-4.82421c3.53969,1.12626 8.6154,5.69841 11.09375,8.67187c1.77852,2.13382 2.67101,5.51839 4.73654,7.65177c0.50266,0.51917 1.40239,-0.3496 2.10539,-0.51692c1.7402,-0.41418 3.44202,-0.99737 5.20132,-1.32097c3.24537,-0.59695 16.09851,3.21223 18.85367,5.56352c10.91724,9.31689 12.77002,21.97984 8.53097,35.30257c-0.65994,2.07411 -2.84119,3.2981 -4.26302,4.94609c-1.42183,1.64799 -2.31295,3.98506 -4.26795,4.94184c-2.23902,1.09577 -4.64275,1.81775 -6.98258,2.67747c-4.44772,1.63423 -5.20087,0.6018 -5.21591,1.16762c-0.14621,5.49974 2.58022,12.7327 3.02064,18.05413c0.15353,1.85512 -1.31869,4.51161 0.20521,5.58061c0.58124,0.40774 4.11258,-0.04285 5.8629,0.01388c14.87669,0.48215 29.75003,1.07174 44.62873,1.48762c16.67192,0.46601 33.59246,2.56463 33.59246,25c0,4.99056 -1.43024,10.1201 -3.90625,14.45313c-11.75122,20.56463 -67.20955,6.46664 -73.6764,10.54687c-8.94631,5.64464 1.65348,21.09177 2.43393,31.64115c0.56309,7.6113 -0.44011,15.91974 0.07364,23.07974c0.0679,0.94638 1.14093,0.3482 1.67845,0.5187c1.24733,0.39566 2.4433,0.9554 3.5961,1.57462c4.29279,2.30587 8.36312,5.0276 12.74127,7.16697c1.73492,0.84776 3.83723,0.80975 5.52022,1.75643c1.71925,0.96708 2.93575,2.63894 4.47867,3.86794c0.97986,0.7805 2.56081,0.5672 3.48047,1.41782c6.23878,5.77047 9.04671,10.5716 11.01748,18.83821c0.15698,0.65846 -0.36106,1.30576 -0.49932,1.96841c-0.42845,2.05352 0.11132,4.19703 0.02871,6.29314c-0.08125,2.06174 -1.21639,9.8305 -2.14687,11.47055c-8.79782,15.50689 -27.77623,14.27846 -43.252,16.54248c-1.00562,0.14712 1.12543,1.7068 1.83253,2.43683c0.87015,0.89836 2.09316,1.49731 2.73044,2.57346c1.8799,3.17447 4.70492,14.21505 3.43379,18.21886c-0.59071,1.86064 -2.13119,3.29128 -2.91726,5.07819c-0.78606,1.78691 -0.79973,3.88919 -1.77214,5.58192c-1.23608,2.1517 -4.62423,2.64487 -5.95655,4.70851c-0.25028,0.38766 0.06561,3.23573 0,3.95978c-0.38258,4.22203 -1.20882,8.66765 -3.125,12.5c-1.21903,2.43805 -2.68591,5.90949 -4.61364,8.00551c-1.21518,1.32127 -3.29605,2.15314 -3.71514,3.89864c-2.51889,10.4911 -4.34126,21.13761 -6.41565,31.72557c-0.98342,5.01951 0.21567,12.05001 -3.27359,16.43034c-2.83967,3.56487 -5.12515,8.49009 -9.47181,9.86068c-3.60981,1.13825 -7.303,2.00977 -11.00565,2.79508c-4.35765,0.92424 -9.3028,-3.08698 -13.30525,-3.15877c-6.51535,-0.11686 -13.05302,-0.51299 -19.54919,0c-7.90971,0.62462 -15.42497,3.73296 -23.1799,5.41068c-6.55866,1.41891 -14.71711,2.10737 -20.22484,3.16662c-5.39934,1.03841 -13.46049,3.46619 -20.12749,4.59606c-35.53737,6.02259 -71.16393,7.62956 -107.07834,10.7158c-40.98302,3.5218 -91.27348,9.30142 -127.83473,1.21813c-8.18695,-1.81004 -15.14587,-5.77926 -23.13761,-8.27469c-21.11571,-6.59339 -42.61266,-12.34504 -64.09758,-17.49718c-2.38394,-0.57167 -5.11382,-2.07646 -7.33997,-2.33843c-3.13059,-0.3684 -6.30456,0.03362 -9.45657,0c-5.80147,-0.06187 -12.47818,-1.27657 -17.65054,-1.5015c-5.58786,-0.243 -11.18659,-0.0589 -16.77942,0c-2.55554,0.02691 -5.53357,2.16257 -8.21033,2.61238c-13.02684,2.18905 -25.24414,-0.00746 -34.00901,-10.15625c-4.5454,-5.26309 -4.31121,-16.34511 -3.66113,-22.91035c0.776,-7.83685 5.36527,-23.19732 9.5339,-30.11803c2.44913,-4.06602 5.5529,-6.80696 8.56115,-10.58824c1.97675,-2.48472 2.53082,-6.35189 4.51425,-9.01938c3.85699,-5.1872 8.23366,-9.98487 12.17797,-15.12948c0.94234,-1.22911 0.42674,-3.08307 0.89534,-4.55926c0.20615,-0.64943 1.20562,-1.05005 1.09962,-1.72312c-0.41758,-2.65159 -2.46573,-6.05307 -3.24789,-8.93648c-2.09567,-7.7257 -4.56088,-15.79917 -5.18264,-23.73612c-3.46325,-44.20953 -4.93695,-63.74227 0.06906,-112.57202c0.94436,-9.21152 1.64988,-18.44835 2.73079,-27.64485c0.52825,-4.49445 3.66985,-8.11007 4.37744,-12.27762c0.33824,-1.99217 7.00909,-38.72042 6.87502,-46.89143c-1.20492,-0.48792 -2.36315,-1.06705 -3.46612,-1.72883c-1.62677,-0.97606 -3.13333,-2.13191 -4.49222,-3.44009c-4.72434,-4.54801 -7.66376,-10.93707 -7.66376,-18.01267c0,-4.98998 1.46195,-9.6385 3.98091,-13.54062c1.54571,-3.10186 3.94195,-5.69746 8.51909,-8.33438z" fill="#0400ff" stroke="none" stroke-width="0.5" stroke-linecap="butt"/><path d="M0.51051,352.17342l478.97898,1.5015" fill="none" stroke="#d2220f" stroke-width="15.5" stroke-linecap="round"/><text transform="translate(6.51652,188.99063) scale(2.20573,2.20573)" font-size="40" xml:space="preserve" fill="#ff0000" fill-rule="nonzero" stroke="none" stroke-width="1" stroke-linecap="butt" stroke-linejoin="miter" stroke-miterlimit="10" stroke-dasharray="" stroke-dashoffset="0" font-family="Sans Serif" font-weight="normal" text-anchor="start" style="mix-blend-mode: normal"><tspan x="0" dy="0">game over </tspan></text></g></g></svg>