<svg version="1.1" xmlns="http://www.w3.org/2000/svg" xmlns:xlink="http://www.w3.org/1999/xlink" width="615.15578" height="569.14689" viewBox="0,0,615.15578,569.14689"><g transform="translate(69.65578,111.38586)"><g data-paper-data="{&quot;isPaintingLayer&quot;:true}" fill-rule="nonzero" stroke-linejoin="miter" stroke-miterlimit="10" stroke-dasharray="" stroke-dashoffset="0" style="mix-blend-mode: normal"><path d="M11.5,37.26047h91.75311l7.27743,-0.72774l7.5462,-1.67693l0.26508,-0.03169l0.25528,-0.07815l5,-1l2.45169,-0.24036l2.45122,-0.24512h71.93053l32.53946,-2.7891l2.10088,-0.42018l1.52343,-0.50781l3.82932,-0.86469l0.08711,-0.00119l0.08302,-0.02641l3.90625,-0.39062h21l0.82965,0.08296l0.83333,-0.02759l14.16943,0.94463h45.16759l2.45122,0.24512l2.45169,0.24036l4.78498,0.957l10.3174,1.87589l6.53026,0.93289l1.08383,0.26703l1.10662,0.14628l15.70004,3.69413l30.25687,3.78211l9.45113,0.85919h49.80903l5.15125,-1.71708l1.61376,-0.3644l0.17369,-0.07317l1.02432,-0.19735l1.01754,-0.22977l0.18846,-0.00258l1.62452,-0.31298l11,-1l1.13449,0.01022l1.1289,-0.11289h14.18544l0.52979,-0.21192l3.77194,-1.08806l0.8216,-0.05963l0.78498,-0.24977l3.90625,-0.39062h6l3.90625,0.39063l1.82192,0.5797l3.17743,0.06033l2.46351,1.73452l1.13088,0.35983l2.73515,2.36218l2.95502,2.08058l0.62336,1.00984l2.28022,1.96928l0.82917,3.06793l1.00428,1.62693l1.32637,3.69488l0.77894,3.11578l0.43484,0.93809l0.05257,1.76622l0.30209,2.06427l-0.16357,2.58989l0.0772,2.5939l-0.37069,2.05306l-0.11138,1.76349l-0.46586,0.92308l-1.17257,4.104l-0.76804,6.91239l-0.26426,1.23785l-0.00106,0.07773l-0.28456,1.26019l-0.26972,1.26345l-0.03161,0.07102l-0.27879,1.23466l-1.69638,5.08915l-1.76714,7.06855l-0.19685,0.54836l-0.11106,0.57194l-2.76768,9.22559l-2.17798,9.43791v1.1528l-0.12407,1.2407v1.24689l-0.87593,8.7593v31.68405l0.65985,3.95909l0.13494,2.05789l0.20521,2.05208v14.93094l0.65985,3.95909l0.13494,2.05789l0.20521,2.05208v22.96014l0.89649,10.75784l0.97944,9.79443v1.24689l0.12407,1.2407v9.61537l0.84709,7.62384l0.01521,1.38379l0.1377,1.377v8.93094l1.65985,9.95909l0.04468,0.68139l0.14256,0.6678l1,9l0.00379,0.34519l0.06276,0.33946l0.92782,11.1338l1.86783,12.14091l0.10098,1.90411l0.18973,1.89732v19l-0.10356,1.03556l0.0172,1.04058l-0.91364,10.96373v6.96014l-0.15468,1.54681l-0.03837,1.55405l-0.80695,6.45558v4.44356l-0.24512,2.45122l-0.24036,2.45169l-1,5l-0.17459,0.57032l-0.08637,0.59016l-1,4l-0.32476,0.90469l-0.21172,0.93761l-1,3l-0.72524,1.61784l-0.63116,1.65681l-0.02465,0.04931l-0.02923,0.39948l-0.46179,0.89279l-0.12793,0.38378l-1.60584,3.58227l-1.09417,1.5013l-0.85348,1.65006l-2.48592,3.03835l-0.28605,0.28605l-0.59201,0.8123l-0.54383,0.32354l-3.15621,3.15621l-0.32354,0.54383l-0.8123,0.59201l-0.28605,0.28605l-3.03835,2.48592l-1.65006,0.85348l-1.5013,1.09417l-3.58227,1.60584l-0.38378,0.12793l-0.89279,0.46179l-0.63111,0.04618l-0.39537,0.13179l-4.31789,1.72715l-3.77194,1.08806l-0.8216,0.05963l-0.78498,0.24977l-3.90625,0.39063h-16l-0.36368,-0.03637l-1.36976,0.17122l-1.64371,-0.47257l-0.5291,-0.05291l-3.23337,-1.0288l-3.26101,-0.93754l-0.46958,-0.24947l-1.62979,-0.51857l-0.40237,-0.3475l-0.13326,-0.00888l-1.46497,-1.13942l-2.36691,-1.57794l-3.03352,-2.49182l-0.27651,-0.34564l-1.82122,-1.4165l-1.54397,-2.78999l-1.99197,-2.48996l-0.61638,-2.22337l-0.21432,-0.38728l-0.05305,-0.1733l-6.5057,0.43371l-6.8146,0.68146l-3.35555,1.11852l-3.82932,0.86469l-0.08711,0.00119l-0.08302,0.02641l-3.90625,0.39063h-0.0983l-0.72136,0.36068l-3.66855,1.39754l-0.30394,0.04768l-0.27934,0.12893l-3.82763,0.87212l-5.54363,0.69295l-0.65155,0.21718l-3.82932,0.86469l-0.08711,0.00119l-0.08302,0.02641l-2.82017,0.28202l-0.80131,0.32053l-2.19622,0.63352l-2.18565,0.66908l-4.41665,0.88333l-3.42286,0.85572l-0.59016,0.08637l-0.57032,0.17459l-5,1l-2.45169,0.24036l-2.45122,0.24512h-69l-1.89732,-0.18973l-1.90411,-0.10098l-13,-2l-0.15196,-0.03918l-0.15659,-0.01027l-3.95909,-0.65985h-0.93094l-1.40259,-0.14026l-0.1227,0.011l-1.18922,-0.14219l-1.19174,-0.11917l-0.1174,-0.03735l-1.39962,-0.16735l-6.32104,-1.40468h-4.25569l-0.82965,-0.08296l-0.83333,0.02759l-14.16943,-0.94463h-21.33518l-14.16943,0.94463l-0.83333,-0.02759l-0.82965,0.08296h-60.93094l-9.95909,1.65985l-2.05789,0.13494l-2.05208,0.20521h-187l-1.24556,-0.12456l-2.2483,0.45501l-5.98941,-2.49559l-3.01673,-0.95987l-0.6647,-0.57406l-0.81072,-0.3378l-2.20766,-2.26898l-4.91067,-4.24103l-0.59849,-2.21443l-0.66844,-1.05836l-1,-2l-0.3654,-0.95916l-0.90628,-1.48748l-0.72956,-5.07045l-0.79385,-5.06079l0.42876,-1.68822l0.06716,-1.02421l1,-6l0.51194,-1.88779l0.43082,-1.90793l8,-24l0.10921,-0.24361l0.06433,-0.2591l5,-14l0.08467,-0.17861l0.05064,-0.19107l2.50002,-6.66673l1.28851,-5.15403l1.6197,-12.95761v-8.44356l0.10356,-1.03556l-0.0172,-1.04058l0.91364,-10.96373v-39.92027l-0.91364,-10.96373l0.0172,-1.04058l-0.10356,-1.03556v-11.44356l-0.80695,-6.45558l-0.03837,-1.55405l-0.15468,-1.54681v-13.03988l-0.90441,-11.75733l-1.97152,-19.7152v-0.28732l-0.05043,-0.28286l-0.91522,-11.89783l-1.81827,-10.90961l-0.06103,-0.93071l-0.17645,-0.91587l-0.942,-10.36203l-1.9094,-13.36583l-0.02235,-0.52898l-0.10484,-0.51896l-1,-10v-0.3558l-0.06054,-0.35061l-0.86852,-12.15933l-1.59969,-7.19858l-0.20107,-1.68168l-0.3079,-1.66544l-1,-12l0.0172,-1.04058l-0.10356,-1.03556v-5.52451l-0.51452,-2.57258l-0.24036,-2.45169l-0.24512,-2.45122v-12.98913l-0.15576,-0.61332l0.15576,-0.993v-0.40454l0.39063,-3.90625l0.36687,-1.15302l-0.08795,-0.43459l0.41008,-0.98419l0.16216,-1.03374l1.39754,-3.66855l0.18092,-0.36183l0.30476,-0.95783l0.41361,-0.47891l0.10071,-0.20143l0.68451,-1.08381l0.71303,-1.71128l3.54172,-3.446l3.446,-3.54172l1.71128,-0.71303l1.08381,-0.68451l0.20143,-0.10071l0.47891,-0.41361l0.95783,-0.30476l0.36183,-0.18092l3.66855,-1.39754l1.03374,-0.16216l0.98419,-0.41008l0.43459,0.08795l1.15302,-0.36687l3.90625,-0.39062h0.40454l0.993,-0.15576l0.61332,0.15576h0.98913l1.377,0.1377l1.38379,0.01521l7.62384,0.84709h0.61537l1.27551,0.12755l1.84949,-0.12755l4.6661,1.62671l4.7089,1.49829l1.40306,1.21173l1.09694,0.66327l3.67171,2.75379l0.99633,0.51608l1.16113,1.41099l1.06145,0.97539l1.67458,2.34941l1.83328,2.22779l0.6659,1.27853l1.06061,1.48802l0.23932,1.09624l0.28681,0.71703c2.02735,-0.53071 4.15511,-0.81327 6.34887,-0.81327z" fill="#0400ff" stroke="none" stroke-width="0.5" stroke-linecap="butt"/><path d="M393.5,356.26047l1,-82l86,2" fill="none" stroke="#e40000" stroke-width="15" stroke-linecap="round"/><path d="M-51,-61.49874c-9.94888,-5.62999 -13.00456,-15.14154 -11.42167,-25.86483c0.58926,-3.99191 0.34955,-7.27682 2.82792,-10.4633c5.18401,-6.66515 13.06385,-9.70862 21.19085,-11.06139c15.77731,-2.62619 51.48435,-0.4758 52.42742,-0.48548c8.41982,-0.08647 17.02813,-1.92875 25.47549,-2c15.42171,-0.13008 20.5002,0.82558 34.03986,1c19.98505,0.25745 39.97358,-0.0785 59.96014,0c2.52984,0.00994 4.99146,0.85951 7.47549,1c15.06741,0.85219 29.93257,2.60604 44.96725,4.11079c5.29895,0.53035 11.99816,0.36858 17.62065,1.63565c12.48252,2.81303 25.13207,4.57254 37.78687,6.55178c3.68576,0.57646 7.33119,1.66371 11.06157,1.70178c64.07802,0.65389 115.27593,4.5539 173.29351,-1.84522c9.10462,-1.00421 17.90664,-3.10952 27.03387,-4.00187c16.84005,-1.64642 33.85943,-0.95424 50.76079,-0.15291c4.35936,0 8.45811,1.11578 12.02624,3.07735c4.5013,2.06828 8.44668,5.17248 9.56604,9.31409c2.16617,3.70159 3.40772,8.01009 3.40772,12.60856c0,3.13655 -0.57762,6.13819 -1.63228,8.90435c-0.35354,1.58846 -0.83735,3.11528 -1.61315,4.5039c1.76998,1.38773 3.27087,3.02153 4.33918,4.89108c4.06522,7.11414 4.73302,14.93314 2.72647,21.72078c5.73482,4.09786 9.17978,10.28373 9.17978,19.4496c0,7.67423 -2.06368,13.10496 -5.49705,16.91429c1.35472,1.7473 2.71632,3.92839 4.46639,6.89663c1.75974,2.98465 2.05847,14.13643 1.49502,17.43179c-2.57579,15.06462 -9.11304,31.49948 -24.70609,37.40101c-29.07666,11.00469 -63.32381,5.2951 -93.45003,1.93515c-21.50415,-2.39834 -43.13343,-2.21268 -64.74035,-1.86234c-23.16028,0.37552 -46.06323,1.66485 -69.23086,-0.05537c-9.64829,-0.7164 -19.03323,-3.51042 -28.45357,-5.46832c-13.74442,-2.85662 -30.06905,-4.88802 -44.26808,-5.4763c-11.55282,-0.47865 -32.54266,-0.1907 -45.40511,0.91827c-4.60505,0.39704 -12.36335,2.0631 -18.21026,2.08173c-15.66659,0.04992 -31.33334,0.01645 -47,0c-27.67875,-0.02907 -54.87699,-4.33664 -82.64773,-3c-0.52409,0.02523 -0.1539,1.08679 -0.47727,1.5c-2.33268,2.98076 -4.13557,6.71586 -7.42187,8.59375c-4.33302,2.47601 -9.46256,3.90625 -14.45312,3.90625c-4.99056,0 -10.1201,-1.43024 -14.45313,-3.90625c-6.55912,-3.74807 -8.51995,-10.64229 -10.15625,-17.1875c-0.09567,-0.38268 0.00851,-7.60711 -0.29062,-7.90625c-0.00814,-0.00814 -0.01651,-0.0157 -0.02508,-0.02269c-0.26435,0.01118 -0.52976,0.01826 -0.79617,0.02117c-0.09279,0.00101 -0.18571,0.00152 -0.27874,0.00152c-5.74386,0 -11.0353,-1.93706 -15.25669,-5.19357c-1.35005,-1.04147 -2.59066,-2.21789 -3.70162,-3.50906c-1.14348,-0.98755 -2.23977,-2.23025 -2.63397,-3.68881c-2.16617,-3.70159 -3.40772,-8.01009 -3.40772,-12.60856c0,-4.98998 1.46195,-9.6385 3.98091,-13.54062c0.54224,-1.08814 1.18914,-2.11397 1.99815,-3.10115c-1.72339,-1.5745 -3.01341,-3.40189 -3.57134,-5.4662c-2.16617,-3.70159 -3.40772,-8.01009 -3.40772,-12.60856c0,-2.96705 0.51687,-5.81337 1.46549,-8.45384c-2.81509,-4.04518 -4.46549,-8.96156 -4.46549,-14.26341c0,-5.18646 1.57935,-10.00404 4.28335,-13.99805c-0.60791,-0.25996 -1.20321,-0.55111 -1.78335,-0.87941z" fill="#0400ff" stroke="none" stroke-width="0.5" stroke-linecap="butt"/><path d="M-32,408.83286c14.08865,-8.11658 31.67322,-1.18856 46.57764,-1.125c30.64416,0.13068 59.23169,0.14302 89.19299,-2.8639c91.38142,-9.17107 189.75878,-3.78366 278.48248,-4.1361c3.65328,-0.01451 7.51274,-0.99566 11.24689,-1c35.16296,-0.04088 70.3362,0.84865 105.48894,0c2.3677,-0.05716 4.23344,-2.31829 6.57,-2.70529c5.16182,-0.85496 22.12693,2.69012 27.44106,5.83029c3.25862,1.92555 6.71586,4.13557 8.59375,7.42188c2.47601,4.33302 3.90625,9.46256 3.90625,14.45313c0,14.5239 -11.01576,24.9901 -25,25c-41.91769,0.02968 -83.8363,-0.27296 -125.75311,0c-3.64359,0.02373 -7.51508,0.99783 -11.24689,1c-70.70275,0.04112 -141.40613,-0.29398 -212.10828,0c-27.26641,0.11337 -54.92098,2.98434 -82.11503,5c-4.62913,0.34312 -9.1126,1.9828 -13.7767,2c-21.33319,0.07869 -42.66676,0.06259 -64,0c-6.02054,-0.01766 -12.05579,-1.76508 -18.06906,-2c-4.30703,-0.16826 -8.649,0.49381 -12.93094,0c-4.16768,0 -8.09717,-1.01982 -11.55253,-2.82353c-7.99191,-4.1718 -13.44747,-12.53703 -13.44747,-22.17647c0,-4.98998 1.46195,-9.6385 3.98091,-13.54062c1.54571,-3.10186 3.94195,-5.69746 8.51909,-8.33438z" fill="#0400ff" stroke="none" stroke-width="0.5" stroke-linecap="butt"/><path d="M241.40625,166.85938c2.33961,-3.27657 5.53935,-5.76395 9.12822,-7.50279c3.55389,-1.94091 7.63088,-3.04408 11.96553,-3.04408c25.9251,-1.47723 28.70637,-0.21571 45.47549,1c12.07259,0.87522 28.50141,1.12468 33.70734,15.21132c1.72998,4.68112 2.29747,9.976 1.47702,14.89866c-1.77006,10.62033 -6.54367,15.8988 -15.92615,19.52238c-9.23543,3.56679 -19.81257,-0.50545 -29.20918,-0.63235c-11.84042,-0.15991 -23.70425,0.70894 -35.52451,0c-4.40351,0 -8.54112,-1.1385 -12.13451,-3.13722c-4.45168,-2.04839 -8.33801,-5.11113 -9.45777,-9.25422c-2.16617,-3.70159 -3.40772,-8.01009 -3.40772,-12.60856c0,-3.13655 0.57762,-6.13819 1.63228,-8.90435c0.44467,-1.99787 1.0954,-3.89822 2.27397,-5.54877z" fill="#0400ff" stroke="none" stroke-width="0.5" stroke-linecap="butt"/><path d="M344.5,183.3125h-82" fill="none" stroke="#e40000" stroke-width="13.5" stroke-linecap="round"/><path d="M72.5,100.3125l-73,1" fill="none" stroke="#e40000" stroke-width="13.5" stroke-linecap="round"/><path d="M0.5,107.3125h75" fill="none" stroke="#e40000" stroke-width="0.5" stroke-linecap="round"/><path d="M350.5,190.3125h-93" fill="none" stroke="#e40000" stroke-width="0.5" stroke-linecap="round"/><path d="M-0.5,357.3125l476,-1" fill="none" stroke="#e40000" stroke-width="6.5" stroke-linecap="round"/><path d="M408.5,223.3125l-44,-2" fill="none" stroke="#e40000" stroke-width="13.5" stroke-linecap="round"/><path d="M195.5,148.3125l-62,-1" fill="none" stroke="#e40000" stroke-width="13.5" stroke-linecap="round"/><path d="M134.5,154.3125h57" fill="none" stroke="#e40000" stroke-width="0.5" stroke-linecap="round"/><path d="M365.5,227.3125l43,1" fill="none" stroke="#e40000" stroke-width="0.5" stroke-linecap="round"/><path d="M4.5,40.3125v50" fill="none" stroke="#696969" stroke-width="16" stroke-linecap="round"/></g></g></svg>