<svg version="1.1" xmlns="http://www.w3.org/2000/svg" xmlns:xlink="http://www.w3.org/1999/xlink" width="587.77786" height="462.32532" viewBox="0,0,587.77786,462.32532"><g transform="translate(60.58926,20.90112)"><g data-paper-data="{&quot;isPaintingLayer&quot;:true}" fill-rule="nonzero" stroke-linejoin="miter" stroke-miterlimit="10" stroke-dasharray="" stroke-dashoffset="0" style="mix-blend-mode: normal"><path d="M-33.4847,9.95971c8.15234,-20.7683 34.19783,-16.79062 51.13549,-17.43495c4.8054,-0.1828 11.88829,-1.49774 17.6392,-1.5015c56.64557,-0.03701 113.29276,0.42506 169.93675,0c4.61836,-0.03466 9.18756,-0.95655 13.78672,-1.37867c10.44505,-0.95867 28.15883,0.02119 32.87156,-0.12283c5.04735,-0.15425 11.8575,-1.49028 17.6392,-1.5015c18.82267,-0.03653 37.64704,0.24789 56.46811,0c7.20404,-0.09488 14.46243,0.02623 21.58954,-1.02807c0.76719,-0.11349 27.43087,-7.84819 39.33655,-7.86882c2.54521,-0.00441 5.10195,-0.10833 7.6342,0.14825c2.87569,0.29138 4.68452,3.96685 7.56161,4.24414c9.92796,0.95686 19.94812,0.06181 29.92189,0c16.03301,-0.09937 33.20207,-0.12087 49.19981,0c2.32756,0.01759 4.75254,-0.2917 6.9706,0.41405c2.95368,0.93981 7.29035,3.7003 9.66101,5.74769c0.57438,0.49606 1.43665,2.46542 2.42604,2.70339c2.55598,0.61478 6.90487,0.26552 9.60053,1.14925c10.5181,3.44819 17.87772,14.22884 17.25812,25.28038c-0.78058,13.92313 -14.09772,19.55144 -18.1633,33.31619c-2.45421,8.30917 -0.15739,17.3295 0,25.9921c0.02586,1.42326 2.14407,1.87918 3.29656,2.71471c2.70436,1.96059 5.82375,4.69418 8.00354,7.48358c3.0461,3.89797 3.91543,9.30343 4.25303,14.19869c0.49424,7.16647 -9.24852,18.70172 -12.79374,23.43389c-0.36084,0.48165 0.24043,1.83439 0.2436,2.43621c0.06705,12.70228 1.59032,31.94332 -0.38672,47.41073c-2.61176,20.43322 -20.72908,59.418 -22.16515,71.42239c-0.5669,4.73881 8.3453,21.05323 10.06287,29.92169c1.87286,9.67029 0.67509,24.08869 -1.72244,32.40011c-1.15753,4.01278 -3.5527,7.66009 -4.29519,11.76996c-0.03415,0.18902 4.91058,1.51855 6.0908,2.53783c5.47384,4.72741 9.07996,9.44095 11.18647,16.31984c2.4912,8.13509 1.57358,19.44169 1.06617,27.08659c-1.09392,16.48136 -4.55708,32.13702 -7.82495,48.26702c-1.11956,5.5261 -3.33457,14.8234 -7.7626,18.41006c-3.09634,2.508 -5.91785,6.36965 -9.88718,6.71864c-3.73276,0.32819 -7.46769,0.76776 -11.21484,0.77344c-8.433,0.01277 -22.21915,-12.15785 -25.80601,-19.3545c-1.55674,-3.12344 -1.8721,-7.60422 -2.39766,-10.98281c-1.42147,-9.13802 2.75956,-26.76411 -4.89521,-31.95338c-7.42008,-5.03017 -25.35047,6.71101 -37.38095,6.73514c-38.03796,0.0763 -76.07611,0.05363 -114.11411,0c-7.8509,-0.01107 -21.7552,-2.74461 -25.27964,-3.15159c-4.49204,-0.51872 -12.38501,-0.73554 -18.18682,-1.75214c-2.63961,-0.46252 -20.60161,-4.05901 -25.64199,-4.10528c-41.21027,-0.37838 -82.42531,-0.32679 -123.63602,0c-3.24255,0.02571 -6.62061,1.47119 -9.95824,1.5015c-19.62151,0.17822 -38.88784,1.27931 -58.48078,1.5015c-2.58508,0.02932 -5.52898,2.16364 -8.22261,2.61628c-13.14379,2.2087 -25.93826,-0.05697 -35.26051,-10.05469c-5.22148,-5.59981 -11.34219,-13.84675 -13.20335,-21.36019c-0.24281,-0.98021 0.42999,-4.65685 0.32715,-5.81838c-0.54485,-6.15411 -1.32276,-11.31427 -1.5015,-17.64819c-0.0816,-2.89157 -1.48289,-5.51675 -1.5015,-8.52088c-0.12092,-19.51914 -0.02534,-39.03906 0,-58.55856c0.01061,-8.17495 1.4168,-17.87691 1.5015,-24.79671c0.38953,-31.82478 0.12852,-63.65459 0,-95.48149c-0.00595,-1.4729 -2.90132,0.52368 -4.36551,0.68375c-3.11151,0.34016 -6.09062,0.7973 -8.91578,-0.46885c-3.41946,-1.53249 -7.22261,-2.5449 -10.08866,-4.95881c-2.00481,-1.68853 -2.555,-4.5785 -3.90363,-6.82608c-1.34863,-2.24758 -3.63978,-4.0929 -4.18636,-6.65643c-1.62597,-7.626 0.15866,-10.84353 2.35188,-16.37673c0.11459,-0.28911 -1.10504,-2.11634 -1.15339,-2.45718c-0.25581,-1.80317 -0.1237,-3.64347 -0.31555,-5.45457c-0.25881,-2.44322 -0.8934,-4.84481 -1.0353,-7.2976c-0.14382,-2.48597 2.07362,-4.53297 3.2732,-6.71512c0.67222,-1.22283 1.66675,-3.86469 2.9693,-4.99096c5.45073,-4.71303 10.27215,-6.81538 17.01931,-9.62318c1.97384,-0.8214 3.97588,-1.59785 6.03681,-2.16647c0.2622,-0.07234 0.78817,0.19204 0.81218,-0.0789c1.17678,-13.28209 -3.003,-26.3098 -3.003,-39.56743c-0.97138,-2.65327 -1.5015,-5.51923 -1.5015,-8.509c0,-1.12211 0.07467,-2.22679 0.21933,-3.30932c0.05723,-1.88905 0.12043,-3.77339 0.80103,-5.50723z" fill="#0400ff" stroke="none" stroke-width="0.5" stroke-linecap="butt"/><path d="M485.74044,361.1186l-487.98799,-3.003" fill="none" stroke="#b786ff" stroke-width="21" stroke-linecap="round"/><path d="M-3.18682,301.5716h63.06306" fill="none" stroke="#e40000" stroke-width="21" stroke-linecap="round"/><path d="M137.95432,-0.23021v199.6997" fill="none" stroke="#e40000" stroke-width="3" stroke-linecap="round"/><path d="M336.15252,-1.73171l4.5045,210.21021" fill="none" stroke="#e40000" stroke-width="3" stroke-linecap="round"/><path d="M447.26363,303.0731l52.55255,-1.5015" fill="none" stroke="#e40000" stroke-width="21.5" stroke-linecap="round"/><path d="M477.29366,232.50253l1.5015,52.55255" fill="none" stroke="#2ce143" stroke-width="15" stroke-linecap="round"/></g></g></svg>