<svg version="1.1" xmlns="http://www.w3.org/2000/svg" xmlns:xlink="http://www.w3.org/1999/xlink" width="528.00002" height="423.4009" viewBox="0,0,528.00002,423.4009"><g transform="translate(24.50005,31.41121)"><g data-paper-data="{&quot;isPaintingLayer&quot;:true}" fill-rule="nonzero" stroke-linejoin="miter" stroke-miterlimit="10" stroke-dasharray="" stroke-dashoffset="0" style="mix-blend-mode: normal"><path d="M-14.5,8.81251c0,-4.59847 1.24155,-8.90697 3.40772,-12.60856l0.49853,-1.84456l2.13544,-1.84425c1.6159,-1.87802 3.50609,-3.51328 5.60838,-4.8436l0.84993,-0.73403l0.94747,-0.30147c3.45536,-1.80371 7.38485,-2.82353 11.55253,-2.82353h5l2.16997,0.217l2.17466,0.16341l16.34232,2.88394l0.6107,-1.46568l0.60859,-2.25179l5.53138,-4.7771l1.06286,-1.03414l0.50078,-0.31628l1.49872,-1.29435l1.10974,-0.3531l0.20992,-0.13258l0.20143,-0.10071l0.47891,-0.41361l0.95783,-0.30476l0.36183,-0.18092l3.66855,-1.39754l1.83527,-0.28789l1.77027,-0.56327l3.90625,-0.39062h0.40454l0.993,-0.15576l0.61332,0.15576h37.97827l0.61332,-0.15576l0.993,0.15576h0.40454l3.90625,0.39063l1.77027,0.56327l0.29394,0.04611h44.02954l0.95645,0.09564l0.96097,-0.02201l13,1l0.07875,0.01404l0.07998,-0.00132l23.79355,1.9828l14.74154,0.98277l15.94823,0.99676l0.05143,0.00841l0.05209,-0.00172l14.16943,0.94463h21.50582l0.06176,-0.02748l1.26345,-0.26972l1.26019,-0.28456l0.07773,-0.00106l1.23785,-0.26426l9,-1l1.38379,-0.01521l1.377,-0.1377h22.44356l6.45558,-0.80695l1.55405,-0.03837l1.54681,-0.15468h83l1.76416,0.17642l1.77138,0.07485l5.24116,0.74874h4.2233l1.93443,0.19344l0.2446,-0.01545l0.86118,0.12603l0.86604,0.0866l0.23355,0.07431l1.92359,0.2815l7.0314,1.75785l2.97427,0.49571h2.93094l1.2407,0.12407h1.24689l10,1l2.18588,0.44159l2.19455,0.39624l5.35802,1.53086l10.55064,1.50723h3.33635l10.3931,-4.33046l6.13807,1.24223l6.26139,0.11889l9.28457,6.53709l1.8025,2.92005l2.36801,2.10901l0.92619,3.64686l0.9667,2.69294l1,4l0.2815,1.92359l0.07431,0.23355l0.0866,0.86604l0.12603,0.86118l-0.01545,0.2446l0.19344,1.93443v40l-0.15468,1.54681l-0.03837,1.55405l-0.68711,5.49688l0.7609,9.89169l0.73897,5.91172l0.63386,2.53545l0.2815,1.92359l0.07431,0.23355l0.0866,0.86604l0.12603,0.86118l-0.01545,0.2446l0.19344,1.93443v21.25569l1.40468,6.32104l0.16735,1.39962l0.03735,0.1174l0.11917,1.19174l0.14219,1.18922l-0.011,0.1227l0.14026,1.40259v4.52451l1.51452,7.57258l0.24036,2.45169l0.24512,2.45122v2.52451l0.51452,2.57258l0.24036,2.45169l0.24512,2.45122v22l-0.20521,2.05208l-0.13494,2.05789l-0.65985,3.95909v2.93094l-0.19344,1.93443l0.01545,0.2446l-0.12603,0.86118l-0.0866,0.86604l-0.07431,0.23355l-0.2815,1.92359l-0.25356,1.01425v2.92236l-0.17642,1.76416l-0.07485,1.77138l-1,7l-0.16637,0.67525l-0.06786,0.69212l-0.78723,3.93616l-0.88019,7.92173l-0.26426,1.23785l-0.00106,0.07773l-0.28456,1.26019l-0.26972,1.26345l-0.03161,0.07102l-0.27879,1.23466l-5.59217,16.77652l-1.72023,7.74105l-0.54792,1.66265l-0.44853,1.69217l-2.38408,6.35755l-1.56179,7.02803l-0.81176,4.0588l-0.6506,4.55423v8.2233l-0.20521,2.05208l-0.13494,2.05789l-0.65985,3.95909v12.16119l0.25356,0.70635l1,4l0.08637,0.59016l0.17459,0.57032l0.88333,4.41665l0.40582,1.62329l0.7269,1.36829l0.83011,1.31434l1.30394,2.60787l1.13664,1.70496l0.17147,0.32277l0.90227,1.04473l0.51857,1.62979l0.24947,0.46958l0.93754,3.26101l0.34919,1.09745l0.53163,1.06326l0.41361,0.47891l0.30476,0.95783l0.18092,0.36183l1.39754,3.66855l0.06238,0.39769l0.14253,0.13868l4.36732,10.48157l-1.24223,6.13807l-0.11889,6.26139l-6.53709,9.28457l-2.92005,1.8025l-2.10901,2.36801l-3.64686,0.92619l-2.69294,0.9667l-4,1l-1.92359,0.2815l-0.23355,0.07431l-0.86604,0.0866l-0.86118,0.12603l-0.2446,-0.01545l-1.93443,0.19344h-61.92236l-1.01425,0.25356l-1.66095,0.24307l-1.64165,0.35046l-9,1l-1.38379,0.01521l-1.377,0.1377h-11.61537l-7.62384,0.84709l-1.38379,0.01521l-1.377,0.1377h-10.93094l-9.95909,1.65985l-2.05789,0.13494l-2.05208,0.20521h-89l-2.05208,-0.20521l-2.05789,-0.13494l-9.95909,-1.65985h-7.93094l-0.35155,-0.03515l-0.3524,0.02524l-70.6481,-1.99009h-14.64796l-1.2407,-0.12407h-1.24689l-8.7593,-0.87593h-12.97641l-4.95342,0.70763l-4.72848,0.78808l-3.0314,0.75785l-1.27585,0.18671l-1.252,0.30846l-7,1l-1.77138,0.07485l-1.76416,0.17642h-0.49788l-1.99033,0.75822l-1.83527,0.28789l-1.77027,0.56327l-3.90625,0.39063h-0.40454l-0.993,0.15576l-0.61332,-0.15576h-42.98913l-2.45122,-0.24512l-2.45169,-0.24036l-2.57258,-0.51452h-26.87174l-1.30988,0.29578l-0.43999,0.21874l-0.40819,-0.02721l-0.41834,0.09446l-9.01743,0.12353l-2.4545,-1.01067l-2.64008,-0.17601l-2.48921,-1.93606l-2.91596,-1.20069l-1.46266,-2.20491l-2.09528,-1.62966l-4.36665,-7.89061l-0.12554,-0.41009l-0.22615,-0.34091l-0.02838,-0.49054l-0.76906,-2.51225l-1,-5l-0.24036,-2.45169l-0.24512,-2.45122v-3l0.11289,-1.1289l-0.01022,-1.13449l1,-11l0.17645,-0.91587l0.06103,-0.93071l1,-6l0.10587,-0.39038l0.03947,-0.40255l1.86391,-9.31957l0.6506,-4.55423v-3.2233l0.24512,-2.45122l0.24036,-2.45169l0.51452,-2.57258v-50.13988l-0.84709,-7.62384l-0.01521,-1.38379l-0.1377,-1.377v-6.2233l-0.74874,-5.24116l-0.07485,-1.77138l-0.17642,-1.76416v-21.61537l-0.84709,-7.62384l-0.01521,-1.38379l-0.1377,-1.377v-52.2233l-0.74874,-5.24116l-0.07485,-1.77138l-0.17642,-1.76416v-16.2233l-0.74874,-5.24116l-0.07485,-1.77138l-0.17642,-1.76416v-5.44356l-0.80695,-6.45558l-0.03837,-1.55405l-0.15468,-1.54681v-4.75311l-0.87593,-8.7593v-1.24689l-0.12407,-1.2407v-32l0.39063,-3.90625l2.73438,-8.59375l7.42188,-8.59375l0.38934,-0.10523c-0.60991,-2.16233 -0.93621,-4.44357 -0.93621,-6.80102z" fill="#0400ff" stroke="none" stroke-width="0.5" stroke-linecap="butt"/><path d="M-5.5,354.96925l488,-1" fill="none" stroke="#e40000" stroke-width="17" stroke-linecap="round"/><path d="M274.5,-4.03074l-117,-1" fill="none" stroke="#0097a3" stroke-width="17" stroke-linecap="round"/><path d="M478.98945,-6.64769v384.38439" fill="none" stroke="#290fad" stroke-width="22.5" stroke-linecap="round"/><path d="M-1.49103,-20.16121l1.5015,400.9009" fill="none" stroke="#1d00ad" stroke-width="22.5" stroke-linecap="round"/><path d="M284.29429,-3.46471l198.1982,9.00901" fill="none" stroke="#fff713" stroke-width="20" stroke-linecap="round"/><path d="M146.15616,-4.96622l-144.14414,10.51051" fill="none" stroke="#fff713" stroke-width="20" stroke-linecap="round"/></g></g></svg>