<svg version="1.1" xmlns="http://www.w3.org/2000/svg" xmlns:xlink="http://www.w3.org/1999/xlink" width="114.53999" height="69.73075" viewBox="0,0,114.53999,69.73075"><g transform="translate(-178.22549,-109.94996)"><g data-paper-data="{&quot;isPaintingLayer&quot;:true}" fill-rule="nonzero" stroke-linejoin="miter" stroke-miterlimit="10" stroke-dasharray="" stroke-dashoffset="0" style="mix-blend-mode: normal"><path d="M237.63163,129.18893c0.66215,0 1.31974,0.00979 1.97221,0.02908c17.24719,0.50999 30.91915,7.66498 30.91915,16.4166c0,9.0827 -14.72597,16.44569 -32.89137,16.44569c-18.1654,0 -32.89137,-7.36299 -32.89137,-16.44569c0,-9.0827 14.72597,-16.44568 32.89137,-16.44568z" data-paper-data="{&quot;index&quot;:null}" fill="#ffffff" stroke="none" stroke-width="0" stroke-linecap="butt"/><path d="M265.24799,165.10072l0.03241,1.82913c0,0 0,0.54477 -0.31126,1.01178c-0.04544,1.24838 -0.07336,2.50237 -0.07336,3.76539l-0.92164,4.17895c0,0 -0.97003,3.8801 -4.85012,2.91007h-0.00001c-3.8801,-0.97002 -2.91007,-4.85013 -2.91007,-4.85013l0.68281,-2.23889c0,-6.77697 0.80223,-13.28669 0.80223,-20.0557c0,0 0,-3.99952 3.99952,-3.99952c3.99952,0 3.99952,3.99952 3.99952,3.99952c0,3.31682 -0.19216,6.56962 -0.38839,9.82012c0.02597,0.59719 0.06917,1.19369 0.12938,1.78802l0.00828,1.00041c0,0 0,0.40989 -0.20315,0.82339c0.00129,0.00582 0.00259,0.01164 0.00387,0.01745z" data-paper-data="{&quot;index&quot;:null}" fill="#ffffff" stroke="none" stroke-width="0.5" stroke-linecap="butt"/><path d="M216.7737,179.6807c-3.99951,0 -3.28231,-4.23859 -3.28231,-4.23859l-0.47814,-8.34886c0,-9.03041 -0.84481,-6.37908 0.61758,-15.29723c0,0 0.65751,-3.9451 4.60261,-3.28758c3.9451,0.65752 3.28758,4.60262 3.28758,4.60262c-1.43325,8.44352 -0.86734,8.76819 -0.86734,17.32913v4.76286c0,0 0.11953,4.47765 -3.87998,4.47765z" data-paper-data="{&quot;index&quot;:null}" fill="#ffffff" stroke="none" stroke-width="0.5" stroke-linecap="butt"/><path d="M183.54264,110.15232l3.19967,1.16695c12.22948,7.36805 16.00615,20.95183 28.07799,28.07799c0,0 3.42955,2.05774 1.37182,5.48729c-2.05773,3.42956 -5.48729,1.37183 -5.48729,1.37183c-3.7907,-2.30443 -8.39781,-5.39138 -11.34126,-8.77322c-6.29528,-7.23288 -8.04663,-14.11486 -16.73673,-19.30478l-1.61371,-0.43751c0,0 -3.79428,-1.26477 -2.52952,-5.05904c1.26475,-3.79427 5.05904,-2.52952 5.05904,-2.52952z" data-paper-data="{&quot;index&quot;:null}" fill="#ffffff" stroke="none" stroke-width="0.5" stroke-linecap="butt"/><path d="M262.50072,142.81519c-2.20887,0 -3.99952,-1.79065 -3.99952,-3.99952c0,-2.20888 1.79065,-3.99952 3.99952,-3.99952c2.20888,0 3.99952,1.79065 3.99952,3.99952c0,2.20888 -1.79065,3.99952 -3.99952,3.99952z" data-paper-data="{&quot;index&quot;:null}" fill="#ffffff" stroke="none" stroke-width="0.5" stroke-linecap="butt"/><path d="M273.3308,124.37556c7.75352,0 14.039,4.8488 14.039,10.83008c0,5.98129 -6.28548,10.83008 -14.039,10.83008c-7.75352,0 -14.039,-4.8488 -14.039,-10.83008c0,-5.98129 6.28548,-10.83008 14.039,-10.83008z" data-paper-data="{&quot;index&quot;:null}" fill="#ffffff" stroke="none" stroke-width="0" stroke-linecap="butt"/><path d="M270.52299,132.38623c-3.99952,0 -3.99952,-3.99952 -3.99952,-3.99952l0.07767,-2.42454c-0.28772,-1.7204 -1.50812,-3.54053 -0.86314,-5.16119c0.14172,-0.35611 0.30579,-0.69938 0.48824,-1.03213l-0.21893,-0.08758l1.56986,-3.92464c0.56718,-1.51898 2.0313,-2.60064 3.74806,-2.60064c1.96596,0 3.60062,1.41848 3.93637,3.2878l0.7877,3.93849l-0.15104,0.0302l0.20926,0.36006c0.00649,1.46841 0.01297,2.93683 0.01946,4.40525c0,0 0,2.17906 -1.60843,3.32034c-0.03582,0.6466 -0.39494,3.88809 -3.99555,3.88809z" data-paper-data="{&quot;index&quot;:null}" fill="#ffffff" stroke="none" stroke-width="0.5" stroke-linecap="butt"/><path d="M280.2536,130.89939c-1.10444,0 -1.99975,-0.89532 -1.99975,-1.99976c0,-1.10444 0.89532,-1.99976 1.99975,-1.99976c1.10444,0 1.99976,0.89532 1.99976,1.99976c0,1.10444 -0.89532,1.99976 -1.99976,1.99976z" data-paper-data="{&quot;index&quot;:null}" fill="#010101" stroke="none" stroke-width="0.5" stroke-linecap="butt"/><path d="M270.01377,123.66366v-0.308c0,-1.25186 -0.68729,-5.61986 1.61588,-5.61986c1.2022,0 2.04428,3.49575 2.67993,4.44923c0,0 0.55463,0.83194 -0.27732,1.38658c-0.83195,0.55463 -1.38658,-0.27732 -1.38658,-0.27732c-0.06134,-0.09202 -0.30406,-0.43308 -0.57903,-0.87007c-0.02396,0.44051 -0.05313,0.79753 -0.05313,0.93143v0.308c0,0 0,0.99988 -0.99988,0.99988c-0.99988,0 -0.99988,-0.99988 -0.99988,-0.99988z" data-paper-data="{&quot;index&quot;:null}" fill="#010101" stroke="none" stroke-width="0.5" stroke-linecap="butt"/><path d="M283.64158,139.52335c-1.10444,0 -1.99975,-0.89532 -1.99975,-1.99976c0,-1.10444 0.89532,-1.99976 1.99975,-1.99976c1.10444,0 1.99976,0.89532 1.99976,1.99976c0,1.10444 -0.89532,1.99976 -1.99976,1.99976z" data-paper-data="{&quot;index&quot;:null}" fill="#e95b88" stroke="none" stroke-width="0.5" stroke-linecap="butt"/><path d="M270.96814,138.1851c-0.35351,-0.35351 0,-0.70702 0,-0.70702l0.77819,-0.72437c2.88648,-0.10288 7.50876,0.17368 10.27084,1.55472c0,0 0.44716,0.22358 0.22358,0.67074c-0.22358,0.44715 -0.67074,0.22358 -0.67074,0.22358c-2.51203,-1.25602 -6.86592,-1.40746 -9.44105,-1.52526l-0.45381,0.50762c0,0 -0.35351,0.35351 -0.70702,0z" data-paper-data="{&quot;index&quot;:null}" fill="#000000" stroke="none" stroke-width="0.5" stroke-linecap="butt"/><path d="M270.51372,135.0596c0,-0.49993 0.49994,-0.49994 0.49994,-0.49994l-0.13917,0.27636c1.8531,-3.07778 8.86631,-0.9638 11.27261,1.41006c0,0 0.35351,0.35351 0,0.70702c-0.35351,0.35351 -0.70702,0 -0.70702,0c-1.51872,-1.54371 -8.84637,-4.43334 -9.67127,-1.66992l-0.75516,0.27636c0,0 -0.49994,0 -0.49994,-0.49994z" data-paper-data="{&quot;index&quot;:null}" fill="#000000" stroke="none" stroke-width="0.5" stroke-linecap="butt"/><path d="M273.47763,130.55569h0.924c3.58028,0 6.10237,2.84617 8.84754,4.05676c0,0 0.44715,0.22358 0.22358,0.67074c-0.22358,0.44715 -0.67074,0.22358 -0.67074,0.22358c-2.58733,-1.39315 -5.0644,-3.9512 -8.40038,-3.9512h-0.924c0,0 -0.49994,0 -0.49994,-0.49994c0,-0.49994 0.49994,-0.49994 0.49994,-0.49994z" data-paper-data="{&quot;index&quot;:null}" fill="#000000" stroke="none" stroke-width="0.5" stroke-linecap="butt"/><path d="M292.76548,133.8276c0,0.49993 -0.49994,0.49994 -0.49994,0.49994l-0.1499,-0.02565c-2.30423,0.75243 -4.48271,0.70698 -6.71048,1.82086c0,0 -0.44716,0.22358 -0.67074,-0.22358c-0.22358,-0.44716 0.22358,-0.67074 0.22358,-0.67074c2.27396,-1.13698 4.51642,-1.08141 6.84145,-1.87512l0.46609,-0.02565c0,0 0.49994,0 0.49994,0.49994z" data-paper-data="{&quot;index&quot;:null}" fill="#000000" stroke="none" stroke-width="0.5" stroke-linecap="butt"/><path d="M292.76547,136.9076c0,0.49993 -0.49994,0.49994 -0.49994,0.49994h-0.92399c-1.89034,0 -3.74995,0.27517 -5.54397,0.308c0,0 -0.49994,0 -0.49994,-0.49994c0,-0.49994 0.49994,-0.49994 0.49994,-0.49994c1.72305,0.04598 3.70862,-0.308 5.54397,-0.308h0.92399c0,0 0.49994,0 0.49994,0.49994z" data-paper-data="{&quot;index&quot;:null}" fill="#000000" stroke="none" stroke-width="0.5" stroke-linecap="butt"/><path d="M291.95755,140.17953c-0.49993,0 -0.49994,-0.49994 -0.49994,-0.49994l0.27636,0.13916c-2.52737,-1.36087 -3.68536,-0.60012 -6.55239,-0.56322c0,0 -0.49994,0 -0.49994,-0.49994c0,-0.49993 0.49994,-0.49994 0.49994,-0.49994c2.96581,0.04902 4.26112,-0.53883 6.99954,0.66878l0.27636,0.75516c0,0 0,0.49994 -0.49994,0.49994z" data-paper-data="{&quot;index&quot;:null}" fill="#000000" stroke="none" stroke-width="0.5" stroke-linecap="butt"/><path d="M271.70011,155.45778c0.8535,0.8535 0.96562,1.10349 0.96562,1.10349l-4.23319,3.85392c-1.25917,1.64846 -2.96443,2.66249 -4.22462,4.34532c0,0 0,0 -0.96562,-0.72422c-0.96562,-0.72422 -0.96562,-0.72422 -0.96562,-0.72422c1.25684,-1.6734 3.0255,-2.70689 4.22462,-4.34531l4.33673,-4.23319c0,0 0.00858,-0.12928 0.86208,0.72422z" data-paper-data="{&quot;index&quot;:null}" fill="#c41253" stroke="none" stroke-width="0.5" stroke-linecap="butt"/><path d="M279.7984,146.90504c0,0 1.08821,2.29253 0.9973,4.5258c-0.06437,1.58127 -1.21916,3.04963 -1.5559,4.02244c-0.65574,1.89437 -3.94699,4.46788 -3.94699,4.46788l-4.67246,-5.50683l9.17804,-7.50931z" data-paper-data="{&quot;index&quot;:null}" fill="#dadada" stroke="#dadada" stroke-width="0.5" stroke-linecap="round"/><path d="M235.07631,133.72202c0,-0.09216 0.07471,-0.16687 0.16687,-0.16687c0.09216,0 0.16687,0.07471 0.16687,0.16687c0,0.09216 -0.07471,0.16687 -0.16687,0.16687c-0.09216,0 -0.16687,-0.07471 -0.16687,-0.16687z" data-paper-data="{&quot;index&quot;:null}" fill="#ffffff" stroke="none" stroke-width="0.5" stroke-linecap="butt"/></g></g></svg>