<svg version="1.1" xmlns="http://www.w3.org/2000/svg" xmlns:xlink="http://www.w3.org/1999/xlink" width="621.9501" height="427.02701" viewBox="0,0,621.9501,427.02701"><g transform="translate(86.2001,29.19448)"><g data-paper-data="{&quot;isPaintingLayer&quot;:true}" fill-rule="nonzero" stroke-linejoin="miter" stroke-miterlimit="10" stroke-dasharray="" stroke-dashoffset="0" style="mix-blend-mode: normal"><path d="M-57.87312,89.83901c-6.2444,0.04308 -13.00042,2.46001 -18.73365,-0.01475c-0.70075,-0.30248 -1.3311,-0.69552 -1.90689,-1.15874l-0.17176,0.29176l-3.31669,-1.95257c-2.50613,-1.41578 -4.19799,-4.10433 -4.19799,-7.18803c0,-4.50791 3.61553,-8.17136 8.10497,-8.24875c13.99562,-0.28104 35.54953,-0.71385 54.42319,-1.09284c-0.56101,-9.10588 -2.20832,-18.34136 -4.25514,-27.15597c-1.38223,-5.95257 -4.421,-12.72058 -4.03026,-18.9073c0.23262,-3.68314 5.98335,-14.15536 6.31976,-14.55785c1.53979,-1.84229 4.25657,-2.2333 6.2902,-3.50975c2.03363,-1.27645 3.59376,-3.455 5.89537,-4.13879c2.72993,-0.81104 5.69484,-0.10035 8.54227,-0.15052c0.06309,-0.07761 0.12663,-0.15484 0.19063,-0.23168c0.59077,-2.18585 5.59164,-5.27264 6.97294,-6.37765l0.00001,-0.00003c9.43565,-7.54831 29.02565,-4.79958 39.24617,-4.63305c4.52212,0.07368 8.81337,2.89459 13.05694,3c21.31762,0.52954 42.64841,0.0153 63.9726,0c4.03304,-0.00289 7.99995,-1.83109 11.68569,-3.21192c6.27235,-2.34987 13.78307,-4.28915 20.37852,-5.39746c3.74454,-0.62924 6.67225,0.04622 10.40413,-0.39062c1.79795,-0.21046 3.76724,-1.30209 5.59587,-1.60938c4.3275,-0.7272 7.66865,-0.09901 12.12955,-0.39062c11.91625,-0.77898 23.87834,-1.85482 35.81271,-2c3.82508,-0.04653 8.29366,-2.66233 12.40452,-2.95131c17.03737,-1.1977 34.04016,-1.46782 51.08397,-2.04869c9.32744,-0.31788 18.66634,-2.61235 27.93995,-3.74874c5.74054,-0.70345 12.52159,-0.0498 17.75884,-0.25126c16.64641,-0.64034 23.02673,-1.06736 45.7767,-1c4.02363,0.01191 8.22147,0.96257 12.13403,1c27.97691,0.26762 55.95643,0.04502 83.93458,0c6.08727,-0.00979 11.89852,0.26317 17.43139,3.125c7.26472,3.75761 11.5184,10.84946 14.2599,18.69482c4.20015,0.38357 7.49011,3.91531 7.49011,8.21547c0,2.88658 -1.48248,5.42691 -3.72762,6.90116c0.37003,2.01102 0.70215,3.96331 1.02238,5.81206c0.40609,2.34444 0.79738,4.73624 1.17,7.16584c9.19956,-1.03573 19.42762,-2.17105 19.63438,-2.12167c0.4191,0.1001 0.82705,0.22468 1.22522,0.37077l0.04359,-0.21795l4.85013,0.97003c3.85595,0.69256 6.78191,4.06447 6.78191,8.11976c0,4.02952 -2.88887,7.3843 -6.70848,8.10623l-2.9593,0.62145c-6.78458,1.42476 -13.56827,2.85413 -20.35166,4.2852c1.753,18.35174 2.01643,37.32923 -0.63381,53.42396c-2.22074,13.48642 -6.30505,26.41929 -7.59675,40.08431c-0.35175,3.72125 1.35707,18.5906 2.643,22.03111c2.36633,6.33115 7.55815,11.21134 11.54634,16.6682c8.20899,11.232 18.6367,22.3273 22.11063,36.23142c3.71255,14.85917 -6.40026,31.38354 -13.44604,43.6539c-2.16736,3.77451 -5.79213,6.90234 -7.50214,10.90063c-0.4773,1.11601 0.64259,4.66122 0.64821,5.9583c0.06544,15.10238 -0.91699,30.23292 0,45.30758c0.07598,1.24911 2.05063,1.46489 2.90102,2.38298c1.72461,1.86192 3.21964,3.92419 4.80506,5.90597c2.78045,3.47556 2.60201,6.27163 3.86213,12.07845c2.62213,12.08315 -10.86839,19.82426 -18.56821,25.1188c-0.49486,0.34027 0.06652,1.20482 0,1.80168c-0.15982,1.43394 -0.17698,2.88388 -0.39062,4.31079c-0.54933,3.66898 -2.15204,9.04591 -4.64624,12.06917c-11.31207,13.7116 -25.3036,12.23463 -41.96314,12.02458c-2.48678,-0.03136 -5.04244,-0.99125 -7.47549,-1c-50.59124,-0.1819 -101.2858,2.27268 -151.7714,-1c-7.55079,-0.48947 -15.19193,-0.84222 -22.75311,-1c-3.05361,-0.06372 -7.35621,-1.63229 -9.92236,-1c-3.34112,0.82324 -20.67956,6.44655 -29.79727,6.96719c-29.36374,1.67675 -58.80211,1.65883 -88.21131,2.03281c-8.68578,0.11045 -15.52412,1.17834 -25.06906,1c-9.09394,-0.16992 -15.4833,-4.05057 -21.09375,-10.54687c-1.6373,-1.89582 -2.99684,-8.03564 -3.51562,-10.54687c-0.26474,-1.28152 -0.29542,-2.60114 -0.39062,-3.90625c-0.0394,-0.54013 0.50635,-1.69527 -0.03057,-1.62442c-10.05206,1.32646 -20.12691,2.09998 -30.21788,3.14844c-4.60875,0.47885 -9.05231,4.49871 -13.68817,5.72954c-8.2718,2.19617 -16.14989,2.89468 -24.5879,3.74644c-17.95147,1.81208 -28.46275,-0.66949 -39.63908,-16.36068c-6.29847,-8.84284 -10.82074,-22.94983 -10.83641,-33.63932c-0.06354,-43.34658 0.28261,-86.69417 0,-130.03988c-0.1149,-17.62373 -2.95884,-35.3594 -3,-52.96012c-0.04777,-20.42544 -0.23667,-41.03697 -0.65458,-61.55108c-11.57279,0.19949 -23.14489,0.49773 -34.71853,0.57757z" fill="#0400ff" stroke="none" stroke-width="0.5" stroke-linecap="butt"/><path d="M-2.5,357.14504l496,1" fill="none" stroke="#e40000" stroke-width="9.5" stroke-linecap="round"/><path d="M66.5,267.14503h65" fill="none" stroke="#e40000" stroke-width="15.5" stroke-linecap="round"/><path d="M270.5,210.14503h70" fill="none" stroke="#e40000" stroke-width="15.5" stroke-linecap="round"/><path d="M82.5,118.14503l88,1" fill="none" stroke="#e40000" stroke-width="15.5" stroke-linecap="round"/><path d="M354.5,298.14503l75,1" fill="none" stroke="#e40000" stroke-width="15.5" stroke-linecap="round"/><path d="M347.5,101.14503l89,2" fill="none" stroke="#e40000" stroke-width="15.5" stroke-linecap="round"/></g></g></svg>