<svg version="1.1" xmlns="http://www.w3.org/2000/svg" xmlns:xlink="http://www.w3.org/1999/xlink" width="616.99993" height="443.13547" viewBox="0,0,616.99993,443.13547"><g transform="translate(87.49994,58.1875)"><g data-paper-data="{&quot;isPaintingLayer&quot;:true}" fill-rule="nonzero" stroke-linejoin="miter" stroke-miterlimit="10" stroke-dasharray="" stroke-dashoffset="0" style="mix-blend-mode: normal"><path d="M-1.01667,-21.77687l0.61062,-0.24245l0.59421,-0.28029l0.27647,-0.06543l2.16734,-0.86056l28,-8l2.12114,-0.38298l2.11016,-0.43948l66,-7l0.51705,-0.0031l0.51012,-0.08447l93,-6l0.0128,0.00045l0.01264,-0.00208l61.5457,-3.90766l30.98882,-5.63433l12.42811,-2.86802l1.55578,-0.19886l0.15945,-0.05074l1.09111,-0.10911l1.0877,-0.13903l0.16678,0.01358l1.56066,-0.15607h6l1.20106,0.12011l1.20704,-0.00386l31,3l0.69041,0.13718l0.70292,0.03728l26,4l1.11878,0.28843l1.14318,0.1673l40,10l0.35339,0.12686l0.36972,0.06546l39,11l0.13019,0.05118l0.13747,0.02592l15.72527,4.62508l9.51186,1.72943l5.81869,0.96978l1.36562,0.37034l1.39243,0.25141l3.63335,1.0381h5.48776l0.61332,-0.15576l0.993,0.15576h0.40454l3.90625,0.39063l1.77027,0.56327l1.83527,0.28789l3.66855,1.39754l0.36183,0.18092l0.95783,0.30476l0.47891,0.41361l0.20143,0.10071l1.05836,0.66844l2.21443,0.59849l4.24103,4.91067l2.26898,2.20766l0.3378,0.81072l0.57406,0.6647l0.95987,3.01673l2.49559,5.98941l-0.45501,2.2483l0.12456,1.24556v3l-0.17642,1.76416l-0.07485,1.77138l-0.74874,5.24116v4.2233l-0.11289,1.1289l0.01022,1.13449l-0.98428,10.82711l-0.91305,11.86962v9.03988l-0.1377,1.377l-0.01521,1.38379l-0.98483,8.86348l-0.98633,9.86332l-0.04335,0.21457l-0.00382,0.21887l-2,17l-0.01957,0.08887l-0.00225,0.09097l-0.80695,6.45558v4.44356l-0.39062,3.90625l-0.02641,0.08302l-0.00119,0.08711l-0.58177,2.5764v16.34723l-0.20521,2.05208l-0.13494,2.05789l-0.65985,3.95909v43.27816l0.58177,2.5764l0.00119,0.08711l0.02641,0.08302l0.39063,3.90625v3.44356l0.80695,6.45558l0.03837,1.55405l0.15468,1.54681v10.61537l0.84709,7.62384l0.01521,1.38379l0.1377,1.377v3.93094l0.65985,3.95909l0.13494,2.05789l0.20521,2.05208v6.52451l1.51452,7.57258l0.24036,2.45169l0.24512,2.45122v5.74575l1.50994,8.30469l1.89473,8.5263l0.07963,0.66596l0.17555,0.64732l1.93373,11.60236l0.92094,4.60471l0.24036,2.45169l0.24512,2.45122v7l-0.19344,1.93443l0.01545,0.2446l-0.12603,0.86118l-0.0866,0.86604l-0.07431,0.23355l-0.2815,1.92359l-0.85572,3.42286l-0.88333,4.41665l-0.10698,0.34948l-0.10074,1.37674l-0.78575,1.51912l-0.15565,0.50845l-0.53946,0.97482l0.78344,2.46224l0.39063,3.90625v0.98913l0.15576,0.61332l-0.15576,0.993v0.40454l-0.39062,3.90625l-0.56327,1.77027l-0.28789,1.83527l-1.16156,3.0491l-0.1074,1.54327l-2.32777,2.97492l-0.89712,1.42043l-1.09464,1.12504l-2.67789,3.42236l-1.40133,0.77016l-1.11509,1.14606l-2.13026,0.88761l-0.73392,1.63722l-1.09417,1.5013l-0.85348,1.65006l-2.48592,3.03835l-0.28605,0.28605l-0.59201,0.8123l-0.54383,0.32354l-0.5781,0.5781l-3.03835,2.48592l-0.51795,0.26791l-1.71818,1.92918l-3.95205,1.0037l-1.82201,0.94242l-2.65317,0.19413l-2.57841,0.65483l-2.02653,-0.31789l-4.06664,0.29756l-2.24007,-1.28685l-0.57609,-0.09037l-3.66855,-1.39754l-2,-1l-3.31916,-2.09631l-0.06244,-0.06075l-0.07738,-0.04002l-1.81766,-1.48717l-29.71161,5.85229l-1.46512,0.13933l-1.44888,0.25833l-13,1l-0.06861,-0.00157l-0.06763,0.01168l-13.33844,0.95275l-7.12428,0.89054l-6.78292,0.96899l-0.81503,0.03444l-0.80309,0.14319l-13,1l-0.41782,-0.00957l-0.41366,0.05961l-23,1l-0.54389,-0.03061l-0.54204,0.0542h-42.96014l-10.62094,0.88508l-8.65813,0.96201l-1.38379,0.01521l-1.377,0.1377h-90l-1.377,-0.1377l-1.38379,-0.01521l-8.86348,-0.98483l-9.86332,-0.98633l-0.98395,-0.19878l-1.0006,-0.08041l-11,-2l-0.06633,-0.01904l-0.06875,-0.00591l-13.71629,-2.5718h-53.59885l-5.01425,1.25356l-2.07823,0.30413l-2.06775,0.36867l-13,1l-0.96097,-0.02201l-0.95645,0.09564h-6.86856l-2.28346,0.97863l-1.14332,0.36022l-0.04798,0.02655l-1.27811,0.39126l-1.27488,0.40167l-0.05458,0.0053l-1.14622,0.35088l-2.37134,0.47427l-2.01977,0.76944l-1.83527,0.28789l-1.77027,0.56327l-3.90625,0.39063h-0.40454l-0.993,0.15576l-0.61332,-0.15576h-1.98913l-2.30211,-0.23021l-2.3051,-0.19798l-16,-3l-1.63579,-0.47928l-1.66269,-0.37545l-12.82815,-4.27605l-0.10256,0.19829l-0.86554,1.05788l-0.2043,0.75593l-1.41171,1.21921l-0.00437,0.00534l-2,2l-3.03835,2.48592l-0.39315,0.20336l-1.74617,1.50805l-3.0386,0.96683l-2.83227,1.46497l-2.30108,0.16837l-0.4218,0.13421l-1.5678,0.15678l-0.64282,0.36928l-1.85096,-0.13544h-2.68933l-1.85096,0.13544l-0.64282,-0.36928l-1.5678,-0.15678l-0.4218,-0.13421l-2.30108,-0.16837l-2.83227,-1.46497l-3.0386,-0.96683l-1.74617,-1.50805l-0.39315,-0.20336l-3.03835,-2.48592l-2.01148,-2.01148l-1.4046,-1.21306l-0.07094,-0.26248l-0.51298,-0.51298l-0.46616,-0.56976l-0.5414,-0.49882l-8,-9l-0.38162,-0.52675l-0.45486,-0.46497l-12,-15l-0.68843,-1.06215l-0.05421,-0.05572l-0.68987,-1.0923l-0.70267,-1.08412l-0.02787,-0.07257l-0.6759,-1.07017l-1,-2l-1.39754,-3.66855l-1.39754,-8.90933l0.13889,-0.54686l-0.31358,-1.54945l1.81084,-4.34602l1.15894,-4.56332l1.18053,-1.05141l0.21701,-0.52082l6.46363,-6.28894l0.54624,-0.34499l0.51246,-0.77251l2.04196,-0.84081l0.21851,-0.138l2,-1l3.66855,-1.39754l0.43728,-0.06859l2.13345,-0.87848l3.18841,0.04368l2.75265,-0.43179v-3.90659l0.11289,-1.1289l-0.01022,-1.13449l0.19457,-2.14031l-1.87582,1.82513l-3.446,3.54172l-1.71128,0.71303l-1.08381,0.68451l-2,1l-3.66855,1.39754l-1.03374,0.16216l-0.98419,0.41008l-0.71176,-0.14405l-1.86333,0.29229l-3.24378,1.08952l-6.02166,-1.66937l-6.05651,-1.53816l-2.27584,-2.55533l-3.63041,-2.90433l-2.49182,-3.03352l-2,-3l-1.84178,-3.46688l-0.26245,-0.91287l-0.45991,-0.83107l-1.14912,-3.75379l-1,-5l-0.24036,-2.45169l-0.24512,-2.45122v-40l0.07781,-0.77806l-0.02912,-0.7814l1,-16l0.05718,-0.34965l-0.00319,-0.35428l0.96389,-10.6028l0.93344,-15.86846v-11.26534l0.10356,-1.03556l-0.0172,-1.04058l1,-12l0.20823,-1.12632l0.08583,-1.14218l3,-17l0.23853,-0.84756l0.12749,-0.8712l4.85572,-19.42286l4.84033,-24.20163l3.83664,-21.10154l1.88373,-15.06985l1.97451,-18.75785l0.0943,-0.45458l0.0196,-0.46384l0.22382,-1.56671l-1.9702,-1.00454l-2.958,-0.79946l-1.09368,-1.26636l-1.49068,-0.76005l-1.48194,-2.68193l-3.35558,-3.88541l-1.64076,-5.15669l-0.76265,-1.38019l0.02191,-0.94782l-0.35288,-1.10905l-0.38883,-3.88833l-0.15756,-0.62038l0.15576,-0.993v-0.40454l0.39063,-3.90625l0.56327,-1.77027l0.09743,-0.62109l0.01635,-0.70697l0.12135,-0.17085l0.05276,-0.33637l1.39754,-3.66855l0.18092,-0.36183l0.30476,-0.95783l0.41361,-0.47891l1.10071,-2.20143l0.66844,-1.05836l0.59849,-2.21443l4.91067,-4.24103l2.20766,-2.26898l0.81072,-0.3378l0.6647,-0.57406l3.01673,-0.95987l5.98941,-2.49559l1.58506,0.32079l0.23228,-0.03644l1.77027,-0.56327l3.90625,-0.39062h0.40454l0.993,-0.15576l0.61332,0.15576h8.98913l3.90625,0.39063l1.2974,0.41281l25.16921,-6.18191l1.76475,-1.05885l2.10907,-0.99485z" fill="#0400ff" stroke="none" stroke-width="0.5" stroke-linecap="butt"/><path d="M473.5,3.8125l1,337v14.44797l-480,3" fill="none" stroke="#e40000" stroke-width="15" stroke-linecap="round"/><path d="M-1.5,291.26047l417,-1" fill="none" stroke="#e40000" stroke-width="15" stroke-linecap="round"/><path d="M356.5,287.26047l-1,-187" fill="none" stroke="#e40000" stroke-width="15" stroke-linecap="round"/><path d="M213.5,287.26047l1,-182" fill="none" stroke="#e40000" stroke-width="15" stroke-linecap="round"/><path d="M87.5,288.26047l3,-181" fill="none" stroke="#e40000" stroke-width="15" stroke-linecap="round"/><path d="M414.5,283.26047l-2,-180" fill="none" stroke="#fff713" stroke-width="15" stroke-linecap="round"/><path d="M283.5,283.26047v-178" fill="none" stroke="#fff713" stroke-width="15" stroke-linecap="round"/><path d="M146.5,284.26047l2,-178" fill="none" stroke="#fff713" stroke-width="15" stroke-linecap="round"/><path d="M2.5,298.26047l412,-1" fill="none" stroke="#fff713" stroke-width="15" stroke-linecap="round"/><path d="M411.07542,90.76047c1.65691,-1.05437 4.83884,-2.27812 8.02078,0.90381c4.5962,4.59619 0,9.19239 0,9.19239l-5.5962,2.9038c-1,0 -2,0 -3,0c0,0 -6.5,0 -6.5,-6.5c0,-6.5 6.5,-6.5 6.5,-6.5c0.1918,0 0.38362,0 0.57542,0z" fill="#e40000" stroke="none" stroke-width="0.5" stroke-linecap="butt"/><path d="M292,98.26047c0,6.5 -6.5,6.5 -6.5,6.5c-1,0 -5,0 -6,0c0,0 -6.5,0 -6.5,-6.5c0,-6.5 6.5,-6.5 6.5,-6.5c1,0 2,0 3,0h3c0,0 6.5,0 6.5,6.5z" fill="#e40000" stroke="none" stroke-width="0.5" stroke-linecap="butt"/><path d="M161,100.26047c0,3.58985 -2.91015,6.5 -6.5,6.5c-0.1588,0 -0.31627,-0.0057 -0.47222,-0.01689c-3.01534,-0.15211 -5.58082,-1.10938 -8.52778,-0.98311c0,0 -6.5,0 -6.5,-6.5c0,-6.5 6.5,-6.5 6.5,-6.5c1.45836,0.03029 2.80506,0.26512 4.12974,0.50088c2.77014,-1.31816 5.77715,0.18535 5.77715,0.18535l-0.02541,0.37304c3.17291,0.43018 5.61852,3.14986 5.61852,6.44074z" fill="#e40000" stroke="none" stroke-width="0.5" stroke-linecap="butt"/><path d="M0.5,275.26047l73,1" fill="none" stroke="#00e6ff" stroke-width="15" stroke-linecap="round"/></g></g></svg>