<svg version="1.1" xmlns="http://www.w3.org/2000/svg" xmlns:xlink="http://www.w3.org/1999/xlink" width="552.09064" height="388.97762" viewBox="0,0,552.09064,388.97762"><g transform="translate(44.49718,13.16513)"><g data-paper-data="{&quot;isPaintingLayer&quot;:true}" fill-rule="nonzero" stroke-linejoin="miter" stroke-miterlimit="10" stroke-dasharray="" stroke-dashoffset="0" style="mix-blend-mode: normal"><path d="M113.50001,-9.4375c3.71529,0.04422 9.41422,1.42943 12.125,3.03125c2.17702,1.28642 4.05959,2.82715 5.64774,4.5534c2.41437,-0.6413 4.83764,-1.24325 7.22726,-1.33465c13.98172,-0.53477 25.43806,-0.7008 40.15342,-1c12.22735,-0.24861 25.02259,-3.41783 37.23485,-3.98752c16.12038,-0.752 32.25728,-1.13708 48.37345,-1.97443c2.47514,-0.1286 6.33952,-1.02708 9.23829,-1.03805c20.33319,-0.07699 41.15086,-4.41092 61,0c2.49655,0.55479 9.27905,1.14399 11.5,2.875c1.41017,1.09908 2.30498,3.16124 4.05935,3.5058c5.56288,1.09256 11.33236,0.37549 16.99582,0.62947c5.51744,0.24744 11.76906,1.9171 17.37869,1.98972c20.40481,0.26418 40.81381,0.17763 61.21955,0c1.86119,-0.0162 3.97021,-0.97437 5.84658,-1c10.33237,-0.14112 20.6789,-0.50265 31,0c8.62304,0.41995 15,5.94641 15,15c0,3.43163 -0.91243,6.35019 -2.51364,8.67672l0.30955,1.85729l-0.09998,1.24971l0.30407,1.21627v26l-0.22989,0.91955l0.11406,0.94097l-3,24l-0.04885,0.1262l0.01392,0.1346l-0.84924,5.9447v118.93398l-0.26185,1.04741l0.11109,1.07391l-0.84924,5.9447v5.39296l0.87684,1.75367l0.24816,0.28735l0.10449,0.41796l0.18692,0.37384l0.74767,3.36452l0.83592,3.34369v0.41796l0.09346,0.42056l-0.09346,0.36799v65.58028l6.6066,6.6066l1.24058,2.06764l1.56922,1.83076l2.46043,4.92086l0.24816,0.28735l0.10449,0.41796l0.18692,0.37384l0.74767,3.36452l0.83592,3.34369v0.41796l0.09346,0.42056l-0.09346,0.36799v5.79348l-0.58482,2.33926l-0.18493,2.40415l-3,9l-0.24216,0.38053l-0.06094,0.44691l-3.33869,8.34673l-0.00438,0.05989l-0.05872,0.09787l-0.59821,1.49552l-1.76743,2.44721l-1.55312,2.58853l-1.13895,1.13895l-0.06682,0.09252l-0.05332,0.02762l-4.34751,4.34751v0.7868l-1.875,7.5l-0.22127,0.25621l-0.24748,0.91566l-2.13796,1.84642l-1.84642,2.13796l-0.91566,0.24748l-0.25621,0.22127l-7.5,1.875h-7l-1.21627,-0.30407l-1.24971,0.09998l-10.77545,-1.79591h-9.27327l-3.54355,0.70871l-1.49233,-0.07106l-1.44941,0.36235h-180l-1.44941,-0.36235l-1.49233,0.07106l-3.54355,-0.70871h-33.51471l-1.44941,-0.36235l-1.49233,0.07106l-4.76282,-0.95256l-4.53687,-0.75615h-43.18249l-11.93845,0.91834l-12.75028,1.82147l-3.24931,0.81233h-1.84658l-1.79145,0.44786h-2.15342l-2.20855,0.55214h-0.78746l-0.72926,0.2971l-7,1l-1.07391,-0.11109l-1.04741,0.26185h-4.93398l-5.9447,0.84924l-1.07391,-0.11109l-1.04741,0.26185h-56l-0.81943,-0.20486l-0.83704,0.11311l-8.1743,-0.90826h-3.16922l-1.44941,-0.36235l-1.49233,0.07106l-3.54355,-0.70871h-4.51471l-2.33926,-0.58482l-2.40415,-0.18493l-0.69075,-0.23025h-20.56584l-7.5,-1.875l-0.25621,-0.22127l-0.91566,-0.24748l-1.84642,-2.13796l-2.13796,-1.84642l-0.24748,-0.91566l-0.22127,-0.25621l-1.875,-7.5v-2l0.20486,-0.81943l-0.11311,-0.83704l1,-9l0.35612,-0.95878v-1.02278l1.91343,-7.65372l0.63871,-3.19354v-1.62597l-0.92715,-2.31788l-0.21988,-1.61246l-0.64888,-1.49242l-2,-12l0.09998,-1.24971l-0.30407,-1.21627v-4.15342l-0.55214,-2.20855v-1.84658l-0.44786,-1.79145v-25.65927l-0.95763,-21.06793l-1.82467,-14.59739l-4.65681,-19.55858l-2.79114,-8.37341l-0.18493,-2.40415l-0.38317,-1.53267l-1.62451,-5.68578l-0.00855,-0.25641l-0.12073,-0.22637l-2,-8v-0.91977l-0.33203,-0.85775l-0.98368,-7.86945l-0.95673,-6.69711l-0.97133,-5.82798l0.09998,-1.24971l-0.30407,-1.21627v-9l1.875,-7.5l0.22127,-0.25621l0.24748,-0.91566l2.13796,-1.84642l1.84642,-2.13796l0.91566,-0.24748l0.25621,-0.22127l7.5,-1.875h2v-15.31958l-0.9384,-10.32238l0.10659,-0.68525l-0.1682,-0.67279v-44l0.68901,-2.75604l0.38384,-2.81482l0.92715,-2.31788v-4.11126l0.36235,-1.44941l-0.07106,-1.49233l0.95256,-4.76282l0.89303,-5.35819l1.03304,-9.29739l-2.65068,-2.31935l-0.53178,-1.58327c-6.84373,-0.39149 -13.58409,-1.35392 -17.55593,-3.68349c-1.95892,-1.14895 -3.95197,-2.27163 -5.73419,-3.67916c-5.80855,-4.58735 -4.49729,-19.12941 2.03817,-22.6037c2.00527,-1.06601 4.16699,-1.81406 6.29985,-2.59406c5.41334,-1.97969 20.46387,-2.55457 25.32702,-3.09517c10.17993,-1.13161 20.01155,-2.33788 30.15233,-3.08166c3.54201,-0.25979 6.9516,-1.77744 10.48529,-2c10.37356,-0.65334 21.22736,-1.989 32.01077,-2.49473c15.84358,-1.94776 31.73774,-1.94867 47.98923,-1.75527z" fill="#0400ff" stroke="none" stroke-width="0.5" stroke-linecap="butt"/><path d="M34.00001,272.8125c0,-1.38071 1.11929,-2.5 2.5,-2.5c1.38071,0 2.5,1.11929 2.5,2.5c0,1.38071 -1.11929,2.5 -2.5,2.5c-1.38071,0 -2.5,-1.11929 -2.5,-2.5z" fill="#e40000" stroke="none" stroke-width="0.5" stroke-linecap="butt"/><path d="M263.50001,180.8125h-167l1,-84l273,1l3,172l-373,2" fill="none" stroke="#e40000" stroke-width="22.5" stroke-linecap="round"/><path d="M472.50001,18.8125l5,342" fill="none" stroke="#e40000" stroke-width="22.5" stroke-linecap="round"/><path d="M107.75001,114.8125c0,-2.62335 2.12665,-4.75 4.75,-4.75c2.62335,0 4.75,2.12665 4.75,4.75c0,2.62335 -2.12665,4.75 -4.75,4.75c-2.62335,0 -4.75,-2.12665 -4.75,-4.75z" fill="#00b818" stroke="none" stroke-width="0.5" stroke-linecap="butt"/><path d="M110.50001,167.8125v-61" fill="none" stroke="#de00cc" stroke-width="11.5" stroke-linecap="round"/><path d="M0.09345,354.12499h467" fill="none" stroke="#e40000" stroke-width="13.5" stroke-linecap="round"/><path d="M382.09346,86.12499l4,195h-387" fill="none" stroke="#fff713" stroke-width="8" stroke-linecap="round"/><path d="M271.09346,195.12499h-188v-10l1,-102" fill="none" stroke="#fff713" stroke-width="8" stroke-linecap="round"/><path d="M126.09346,108.12499l229,-2l4,149" fill="none" stroke="#fff713" stroke-width="8" stroke-linecap="round"/><path d="M63.09346,81.12499l332,1l38,1" fill="none" stroke="#0400ff" stroke-width="8" stroke-linecap="round"/><path d="M273.09344,221.12499l-7,-14l-1,-56" fill="none" stroke="#0400ff" stroke-width="8" stroke-linecap="round"/><path d="M79.34345,87.12499c0,-2.62335 2.12665,-4.75 4.75,-4.75c2.62335,0 4.75,2.12665 4.75,4.75c0,2.62335 -2.12665,4.75 -4.75,4.75c-2.62335,0 -4.75,-2.12665 -4.75,-4.75z" fill="#e40000" stroke="none" stroke-width="0.5" stroke-linecap="butt"/><path d="M377.34345,89.12499c0,-2.62335 2.12665,-4.75 4.75,-4.75c2.62335,0 4.75,2.12665 4.75,4.75c0,2.62335 -2.12665,4.75 -4.75,4.75c-2.62335,0 -4.75,-2.12665 -4.75,-4.75z" fill="#e40000" stroke="none" stroke-width="0.5" stroke-linecap="butt"/><path d="M254.34345,194.12499c0,-2.62335 2.12665,-4.75 4.75,-4.75c2.62335,0 4.75,2.12665 4.75,4.75c0,2.62335 -2.12665,4.75 -4.75,4.75c-2.62335,0 -4.75,-2.12665 -4.75,-4.75z" fill="#e40000" stroke="none" stroke-width="0.5" stroke-linecap="butt"/><path d="M394.09345,84.12499l-349,-2" fill="none" stroke="#0400ff" stroke-width="8" stroke-linecap="round"/><path d="M262.09344,208.12499l-1,-48l11,-8v54" fill="none" stroke="#0400ff" stroke-width="8" stroke-linecap="round"/><text transform="translate(176.09345,317.37499) scale(0.65168,0.65168)" font-size="40" xml:space="preserve" fill="#5aff00" fill-rule="nonzero" stroke="none" stroke-width="1" stroke-linecap="butt" stroke-linejoin="miter" stroke-miterlimit="10" stroke-dasharray="" stroke-dashoffset="0" font-family="Sans Serif" font-weight="normal" text-anchor="start" style="mix-blend-mode: normal"><tspan x="0" dy="0">don't toutch yellow</tspan></text><text transform="translate(391.09345,60.12499) scale(0.5,0.5)" font-size="40" xml:space="preserve" fill="#5aff00" fill-rule="nonzero" stroke="none" stroke-width="1" stroke-linecap="butt" stroke-linejoin="miter" stroke-miterlimit="10" stroke-dasharray="" stroke-dashoffset="0" font-family="Sans Serif" font-weight="normal" text-anchor="start" style="mix-blend-mode: normal"><tspan x="0" dy="0"> </tspan></text><path d="M-4.5,254.8125h375" fill="none" stroke="#e40000" stroke-width="18" stroke-linecap="round"/><path d="M251.5,193.8125l-166,3" fill="none" stroke="#e40000" stroke-width="18" stroke-linecap="round"/></g></g></svg>