<svg version="1.1" xmlns="http://www.w3.org/2000/svg" xmlns:xlink="http://www.w3.org/1999/xlink" width="529.95916" height="417.91474" viewBox="0,0,529.95916,417.91474"><g transform="translate(25.5114,25.72125)"><g data-paper-data="{&quot;isPaintingLayer&quot;:true}" fill-rule="nonzero" stroke-linejoin="miter" stroke-miterlimit="10" stroke-dasharray="" stroke-dashoffset="0" style="mix-blend-mode: normal"><path d="M18.52855,-18.17192c32.03179,-0.12512 64.06408,-0.02935 96.0961,0c7.19769,0.00659 15.91202,1.38653 21.91274,1.5015c18.30415,0.35069 36.62728,0.66988 54.92253,0c4.60118,-0.16847 9.54181,-2.51917 14.34041,-2.92937c14.46663,-1.23664 31.40105,-4.31674 45.46096,-4.57814c11.01223,-0.20474 22.06809,-1.49666 33.03303,-1.5015c55.05505,-0.02431 110.11017,-0.08051 165.16517,0c9.48764,0.01387 20.53399,2.36008 28.99044,7.03987c8.42478,4.66226 12.54681,16.96835 12.52608,25.97701c-0.05145,22.35268 0.0548,44.70554 0,67.0582c-0.00277,1.12853 -0.08225,2.25891 -0.22925,3.37783c-3.41127,25.96641 -8.71403,54.21201 -7.27826,80.60169c0.41395,7.60841 7.77751,14.75249 8.8561,22.86931c1.97331,14.84987 3.30248,29.79255 5.74463,44.57256c1.96936,11.91861 5.80798,23.22695 6.32414,35.44264c0.31005,7.33777 -0.66911,17.16635 -3.87066,24.10303c-1.8688,4.04907 -10.24561,10.32551 -9.91059,15.032c0.38165,5.36157 1.13798,10.68987 1.71789,16.03363c0.32386,2.98431 -1.49376,7.36581 1.06045,8.94285c4.62436,2.85521 9.12664,9.1419 9.73299,14.59911c0.9965,8.96849 -2.14208,21.8803 -7.63819,28.75044c-4.40826,5.51032 -10.46903,7.04368 -16.18028,9.98357c-1.16171,0.598 -1.26269,2.43404 -2.37644,3.11722c-3.22638,1.97909 -6.7522,3.4225 -10.13723,5.11599c-5.79728,2.90031 -21.48419,-1.08338 -27.28045,-4.66131c-2.90546,-1.7935 -4.76809,-5.76617 -7.0814,-8.19951c-0.40109,-0.4219 -1.06884,0.46967 -1.62748,0.63335c-6.9934,2.04903 -14.00526,4.0349 -21.02102,6.00601c-16.10052,4.52351 -36.37605,7.1203 -53.1349,8.40588c-20.67015,1.58561 -48.39179,5.35353 -67.41911,1.1468c-18.67813,-4.12952 -31.26779,-12.86683 -51.36231,-13.09528c-32.97813,-0.37492 -65.96274,-0.38285 -98.94078,0c-4.01118,0.04657 -8.18554,1.46936 -12.28721,1.5015c-6.91506,0.05419 -13.83675,-0.29284 -20.74583,0c-5.23939,0.22207 -26.90997,2.81391 -28.22909,2.91665c-10.41824,0.81138 -27.39624,-0.06877 -32.47364,0.08636c-10.91692,0.33354 -34.51212,5.34606 -43.63798,-2.53536c-2.43351,-2.10167 -5.03102,-4.06417 -7.11833,-6.51001c-0.49636,-0.58162 -0.32246,-1.50137 -0.59849,-2.21443c-1.01164,-2.61332 -2.72979,-4.99347 -3.56748,-7.72991c-2.35235,-7.68434 -2.96856,-15.79244 -4.02453,-23.71285c-0.98893,-7.41763 -3.12027,-16.71928 -3.22325,-24.33948c-0.05576,-4.12612 0.20762,-8.25822 0,-12.37949c-0.22892,-4.54406 -1.4952,-11.93089 -1.5015,-17.65054c-0.03722,-33.77385 0.66743,-67.55434 0,-101.32161c-0.52914,-26.77072 -3.47603,-51.58882 -5.89339,-77.98984c-2.54303,-27.77346 -0.00035,-55.77944 -0.11261,-83.66886c-0.03863,-9.59518 2.99065,-24.20798 14.2067,-27.0565c0.14526,-0.18819 0.29313,-0.37425 0.44358,-0.55813c3.91066,-6.57325 19.69276,-12.14895 28.36774,-12.18284z" fill="#0400ff" stroke="none" stroke-width="0.5" stroke-linecap="butt"/><path d="M2.01202,353.67492h478.97898" fill="none" stroke="#e40000" stroke-width="19" stroke-linecap="round"/><path d="M474.98499,340.16141v-100.6006" fill="none" stroke="#f2ff73" stroke-width="19" stroke-linecap="round"/><path d="M224.5,338.506l67,-1" fill="none" stroke="#e2ff4c" stroke-width="18.5" stroke-linecap="round"/></g></g></svg>