<svg version="1.1" xmlns="http://www.w3.org/2000/svg" xmlns:xlink="http://www.w3.org/1999/xlink" width="547.56826" height="419.99999" viewBox="0,0,547.56826,419.99999"><g transform="translate(27.0682,24.18749)"><g data-paper-data="{&quot;isPaintingLayer&quot;:true}" fill-rule="nonzero" stroke-linejoin="miter" stroke-miterlimit="10" stroke-dasharray="" stroke-dashoffset="0" style="mix-blend-mode: normal"><path d="M491.68586,131.47691c-0.07108,2.35007 0.29464,4.80055 -0.41823,7.04101c-1.33915,4.20876 -3.73191,7.67682 -6.76763,10.51332v9.70362l0.15253,0.61014l1.88556,6.59948l0.17996,0.99668l0.29646,0.96844l1.34341,6.71706l5.50275,11.0055l0.63116,1.65681l0.72524,1.61784l5.43816,16.31448l0.20544,0.41088l0.50181,1.31724l0.06471,0.10483l0.40466,1.12726l0.42637,1.11922l0.01909,0.12171l0.47625,1.32669l1,4l0.2815,1.92359l0.07431,0.23355l0.0866,0.86604l0.12603,0.86118l-0.01545,0.2446l0.19344,1.93443v4.52451l1.51452,7.57258l0.03947,0.40255l0.10587,0.39038l1,6l0.13494,2.05789l0.20521,2.05208v1.92236l0.25356,1.01425l0.2815,1.92359l0.07431,0.23355l0.0866,0.86604l0.12603,0.86118l-0.01545,0.2446l0.19344,1.93443v3.01159c5.31136,4.49997 9.1226,10.28058 10.7367,18.25616c0.1714,0.84693 -0.6744,1.63041 -0.70756,2.49387c-0.03316,0.86346 0.75006,1.7095 0.51421,2.54079c-2.28842,8.06574 -7.31055,15.39392 -14.01102,20.41881l-0.01781,0.18168l-1.51452,7.57258v3.52451l-0.15468,1.54681l-0.03837,1.55405l-1,8l-0.20319,0.89177l-0.08924,0.91026l-0.51452,2.57258v2.52451l-0.39062,3.90625l-0.02641,0.08302l-0.00119,0.08711l-0.58177,2.5764v4.33636l0.15576,0.61332l-0.15576,0.993v0.40454l-0.39062,3.90625l-0.36687,1.15302l0.08795,0.43459l-0.41008,0.98419l-0.16216,1.03374l-1.39754,3.66855l-0.18092,0.36183l-0.30476,0.95783l-0.41361,0.47891l-0.10071,0.20143l-0.68451,1.08381l-0.71303,1.71128l-3.54172,3.446l-3.446,3.54172l-1.71128,0.71303l-1.04948,0.66283l-2.21467,1.661l-1.63061,0.98595l-1.2047,1.2047l-0.07094,0.26248l-4.91067,4.24103l-2.20766,2.26898l-0.81072,0.3378l-0.6647,0.57406l-3.01673,0.95987l-5.98941,2.49559l-2.2483,-0.45501l-1.24556,0.12456h-23l-1.93443,-0.19344l-0.2446,0.01545l-0.86118,-0.12603l-0.86604,-0.0866l-0.23355,-0.07431l-1.92359,-0.2815l-4,-1l-0.70635,-0.25356h-34.23026l-1.03556,-0.10356l-1.04058,0.0172l-10.96373,-0.91364h-65.99585l-5.05804,1.60938l-3.90625,0.39063h-4l-0.82965,-0.08296l-0.83333,0.02759l-14.9324,-0.99549l-9.59449,-0.58742l-7.24458,-0.2337l-0.50216,0.12554l-1.27585,0.18671l-1.252,0.30846l-7,1l-0.42048,0.01777l-0.25195,0.09598l-0.10483,0.06471l-1.12726,0.40466l-1.11922,0.42637l-0.12171,0.01909l-1.32669,0.47625l-0.39096,0.09774l-1.81003,1.08602l-3.55056,1.67479l-0.34497,0.08164l-0.31017,0.17165l-3.75379,1.14912l-4.15567,0.83113l-10.16929,2.77344l-1.53301,0.25776l-1.50939,0.37188l-7,1l-1.77138,0.07485l-1.76416,0.17642h-6.52451l-2.57258,0.51452l-1.08043,0.10592l-1.06169,0.22665l-9,1l-0.42497,0.00467l-0.4184,0.0746l-12.18805,0.93754l-6.19383,0.88483l-1.11675,0.04719l-1.10481,0.16952l-19,1l-0.65826,-0.03102l-0.65572,0.06557h-105l-1.76416,-0.17642l-1.77138,-0.07485l-5.24116,-0.74874h-13.2233l-2.05208,-0.20521l-2.05789,-0.13494l-6,-1l-0.96455,-0.26157l-0.98886,-0.14471l-4,-1l-3.69488,-1.32637l-1.62693,-1.00428l-3.06793,-0.82917l-1.96928,-2.28022l-1.00984,-0.62336l-2.08058,-2.95502l-2.36218,-2.73515l-0.35983,-1.13088l-1.73452,-2.46351l-0.06033,-3.17743l-0.5797,-1.82192l-0.3564,-3.56399l-1.56471,-1.81177l-3.56326,-3.07736l-0.41246,-1.52611l-0.36879,-0.42702l-0.45076,-1.41667l-5.03638,-5.8316l-0.43912,-0.38423l-0.06828,-0.20328l-1.00546,-1.16422l-2.73437,-8.59375l-0.19601,-1.96014l-0.76282,-2.27113l0.62682,-2.26101l0.33202,-3.32022l0.56327,-1.77027l0.28789,-1.83527l0.75822,-1.99033v-32.49788l0.13284,-1.32837l0.00943,-1.33496l3,-28l0.04532,-0.21646l0.00546,-0.22108l2.92621,-23.40969l0.95437,-12.40685l0.01404,-0.07875l-0.00132,-0.07998l1,-12l0.25973,-1.40489l0.1394,-1.42188l1,-5l0.51452,-1.68076v-36.8599l-0.80695,-6.45558l-0.03837,-1.55405l-0.15468,-1.54681v-16l0.08886,-0.88855l-0.02532,-0.89262l0.93647,-13.11054v-38.10828l0.1377,-1.377l0.01521,-1.38379l0.84709,-7.62384v-56.61537l0.39063,-3.90625l0.22629,-0.71118l-0.20919,-0.77401c-2.16617,-3.70159 -3.40772,-8.01009 -3.40772,-12.60856c0,-4.59847 1.24155,-8.90697 3.40772,-12.60856l0.49853,-1.84456l2.13544,-1.84425c1.6159,-1.87802 3.50609,-3.51328 5.60838,-4.8436l0.84993,-0.73403l0.94747,-0.30147c3.45536,-1.80371 7.38485,-2.82353 11.55253,-2.82353h2l1.76416,0.17642l1.77138,0.07485l5.24116,0.74874h1.2233l1.377,0.1377l1.38379,0.01521l7.62384,0.84709h24.13988l6.98924,-1.39785l3.42286,-0.85572l1.92359,-0.2815l0.23355,-0.07431l0.86604,-0.0866l0.86118,-0.12603l0.2446,0.01545l1.93443,-0.19344h35.96014l10.96373,-0.91364l1.04058,0.0172l1.03556,-0.10356h249.44356l6.45558,-0.80695l0.42249,-0.01043l0.41499,-0.07995l11,-1l1.13449,0.01022l1.1289,-0.11289h29l2.05208,0.20521l2.05789,0.13494l3.95909,0.65985h12.45545l2.57258,-0.51452l2.45169,-0.24036l0.65515,-0.06551l1.73268,-0.43317l1.90725,-0.27911l1.89275,-0.36466l11,-1l1.13449,0.01022l1.1289,-0.11289h30l3.90625,0.39063l2.7121,0.86294l3.41728,0.22782l1.87011,1.45453l0.59426,0.18908l3.18101,2.74724l3.31774,2.58046l0.30195,0.54563l1.79305,1.54854l0.89358,3.30624l1.37807,2.4902l1.14912,3.75379l0.21466,1.07329l0.48958,0.62649l0.19172,2.78001l0.10404,0.52021l0.38304,3.907l-0.11215,1.00933l0.21459,3.11157l-0.82245,2.35912l-0.2759,2.48309l-1.5361,2.71447l-0.33431,0.95894l-2.03125,3.35938l-0.31831,0.42441l-1.37241,2.42522l-0.71197,0.35395l-0.18097,0.24129l-1.61509,2.42263l-0.44142,0.53738l-0.35983,0.59511l-1.64745,2.1966l-1.76458,3.52916l-1.33441,5.33763l-0.32476,0.90469l-0.21172,0.93761l-0.69638,2.08915l-0.76714,3.06855l-0.32476,0.90469l-0.21172,0.93761l-1.59217,4.77652l-1.72023,7.74105l-0.40358,1.22466l-0.28401,1.25778l-5.36411,16.09232l-0.04618,0.63111l-0.46179,0.89279l-0.12793,0.38378l-1.60584,3.58227l-1.09417,1.5013l-0.85348,1.65006l-0.04115,0.05029l-0.12244,0.36733v0.94306l-0.39062,3.90625l-0.02641,0.08302l-0.00119,0.08711l-0.86469,3.82932l-1,3l-0.30113,0.67175l-0.20403,0.70732l-0.32053,0.80131l-0.0966,0.966l-0.08888,1.35539c4.3861,8.18538 5.76335,17.88682 5.47995,27.25694z" fill="#0400ff" stroke="none" stroke-width="0.5" stroke-linecap="butt"/><path d="M492.21139,356.70214h-496.997" fill="none" stroke="#e40000" stroke-width="14" stroke-linecap="round"/><path d="M372.09728,284.63007c0,-3.31371 2.68629,-6 6,-6c3.31371,0 6,2.68629 6,6c0,3.31371 -2.68629,6 -6,6c-3.31371,0 -6,-2.68629 -6,-6z" fill="#e40000" stroke="none" stroke-width="0.5" stroke-linecap="butt"/><path d="M223.44863,271.11655c0,-3.31371 2.68629,-6 6,-6c3.31371,0 6,2.68629 6,6c0,3.31371 -2.68629,6 -6,6c-3.31371,0 -6,-2.68629 -6,-6z" fill="#e40000" stroke="none" stroke-width="0.5" stroke-linecap="butt"/><path d="M52.27746,202.04748c0,-3.31371 2.68629,-6 6,-6c3.31371,0 6,2.68629 6,6c0,3.31371 -2.68629,6 -6,6c-3.31371,0 -6,-2.68629 -6,-6z" fill="#e40000" stroke="none" stroke-width="0.5" stroke-linecap="butt"/><path d="M184.40959,114.9604c0,-3.31371 2.68629,-6 6,-6c3.31371,0 6,2.68629 6,6c0,3.31371 -2.68629,6 -6,6c-3.31371,0 -6,-2.68629 -6,-6z" fill="#e40000" stroke="none" stroke-width="0.5" stroke-linecap="butt"/><path d="M375.10028,72.91836c0,-3.31371 2.68629,-6 6,-6c3.31371,0 6,2.68629 6,6c0,3.31371 -2.68629,6 -6,6c-3.31371,0 -6,-2.68629 -6,-6z" fill="#e40000" stroke="none" stroke-width="0.5" stroke-linecap="butt"/><path d="M483.19637,69.91535c0,6 -6,6 -6,6h-1.5015c-1.59818,-0.15791 -3.06072,0.98837 -4.62749,1.341c-1.42582,0.3209 -2.92038,0.12875 -4.38152,0.16051c-10.49893,0.2282 -21.02986,0 -31.53153,0c0,0 -6,0 -6,-6c0,-6 6,-6 6,-6c7.50751,0 15.01502,0 22.52252,0c2.974,0 7.84377,0.96894 10.63349,0.16051c1.07493,-0.3115 1.91116,-1.25576 3.003,-1.5015c1.42582,-0.3209 2.92101,-0.107 4.38152,-0.16051h1.5015c0,0 6,0 6,6z" fill="#e40000" stroke="none" stroke-width="0.5" stroke-linecap="butt"/><path d="M465.19037,6.85229c0,-3.31371 2.68629,-6 6,-6c3.31371,0 6,2.68629 6,6c0,3.31371 -2.68629,6 -6,6c-3.31371,0 -6,-2.68629 -6,-6z" fill="#60b000" stroke="none" stroke-width="0.5" stroke-linecap="butt"/><path d="M471.19037,-8.16273l1.5015,64.56456" fill="none" stroke="#60b000" stroke-width="20.5" stroke-linecap="round"/><path d="M87.5976,262.30105l67.56757,-1.5015" fill="none" stroke="#fff713" stroke-width="20" stroke-linecap="round"/><path d="M260.27027,119.65841h85.58559" fill="none" stroke="#fff713" stroke-width="20" stroke-linecap="round"/></g></g></svg>