<svg version="1.1" xmlns="http://www.w3.org/2000/svg" xmlns:xlink="http://www.w3.org/1999/xlink" width="109.79942" height="61" viewBox="0,0,109.79942,61"><g transform="translate(-200.29715,-134.8125)"><g data-paper-data="{&quot;isPaintingLayer&quot;:true}" fill-rule="nonzero" stroke="none" stroke-width="0.5" stroke-linecap="butt" stroke-linejoin="miter" stroke-miterlimit="10" stroke-dasharray="" stroke-dashoffset="0" style="mix-blend-mode: normal"><path d="" fill="#040000"/><path d="M246.5,169.8125c1.29048,0.00731 2.67726,-0.36554 3.86935,0.12872c0.59112,0.24509 1.18095,0.52867 1.74762,0.85451c2.79068,-0.20654 6.08092,-0.52798 7.50435,0.89545c0.14064,0.14064 0.25671,0.29401 0.35243,0.4579c0.73786,1.26333 0.26699,3.15235 0.52625,4.66342v1.03865c0.34288,0.00035 0.67921,-0.00733 1,-0.03865c3.72905,-0.36413 6.03005,1.46081 9.48055,2.03874c1.81459,0.30393 3.67959,-0.03874 5.51945,-0.03874c0,0 3,0 3,3c0,3 -3,3 -3,3c-0.55742,0 -6.18027,0.01113 -6.48055,-0.03874c-2.0797,-0.34537 -3.92078,-1.65175 -6,-2c-0.82838,-0.13875 -1.70408,0.24028 -2.51945,0.03874c0.08838,1.59346 0.42525,3.5036 -0.56627,4.75413c-1.12301,1.41637 -3.20649,1.742 -4.95318,2.20713c-3.99185,1.06301 -10.41426,0.05071 -14.48055,0.03874c-3.34196,-0.00984 -6.27832,0.97752 -9.63345,0.97752l-2.36655,0.60671v0.41577c0,1.65685 -1.34315,3 -3,3c-1.65685,0 -3,-1.34315 -3,-3v-3v0c-0.66659,-1.11098 -0.29681,-2.50902 -0.09912,-3.8594c-0.00964,-0.3048 -0.01837,-0.60987 -0.02524,-0.9147c-3.06447,0.26559 -7.40322,-0.22591 -9.87564,-0.22591c-2.08418,0 -4.9801,-1.01479 -6,0.62546v2.37454c0,1.65685 -1.34315,3 -3,3c-1.47465,0 -2.7008,-1.06398 -2.95264,-2.46615l-0.9891,-4.9455l0.0604,-0.01208c-0.03567,-0.09311 -0.07037,-0.18665 -0.10406,-0.28065c-0.4831,-1.34792 -0.00973,-2.86374 -0.0146,-4.29561v-2c0,0 0,-3 3,-3c3,0 3,3 3,3v2c-0.00014,0.03649 0.00009,0.07306 0.00068,0.10969c2.23562,-0.171 6.2955,-0.10969 6.99932,-0.10969c3.24635,0 6.62763,0.34126 9.85195,0.22836c0.04969,-0.00174 0.09903,-0.00507 0.14805,-0.00989v-4.21847c0,-0.89176 0.38909,-1.69264 1.00676,-2.24214c0.15692,-2.75786 2.99324,-2.75786 2.99324,-2.75786c5.19318,0 11.03432,-0.64913 16.27813,-0.10865c0.90502,0.00886 1.82062,0.10354 2.72187,0.10865zM307.47529,140.8125c-0.00137,0.00182 -0.00274,0.00364 -0.00411,0.00545c0.70797,0.00588 1.29851,0.01606 1.54827,0.03328c0.35486,0.02447 0.89747,0.52996 1.04682,0.20713c0.03847,-0.08316 0.03774,-0.1648 0.01218,-0.24587zM283.84112,136.20318c-0.21787,-0.4157 -0.34112,-0.8888 -0.34112,-1.39068c0,0.45787 0.01693,0.95909 0.04327,1.48997z" fill="#040000"/><path d="M249.78625,175.84444c1.07309,-0.20638 2.05539,0.28478 2.05539,0.28478l3.65836,3.68328c-0.29289,1.70711 0.34607,3.89658 -0.87868,5.12132c-1.65453,1.65453 -8.3478,0.87675 -10.75477,0.8562c-3.72247,0.95432 -7.45839,2.41671 -11.36655,2.02248c-1.72331,-0.17384 -3.94871,0.39607 -5.12132,-0.87868c-1.2783,-1.38965 -1.08249,-3.72935 -0.83994,-5.60187c0.23219,-1.79258 0.79076,-3.83017 2.20713,-4.95318c0.02721,-0.02158 0.05474,-0.04243 0.08257,-0.06257c0.77858,-1.5037 2.67156,-1.5037 2.67156,-1.5037c3.99418,0 8.0076,-0.11189 12,0c1.71703,0.04812 3.69985,-0.69534 5.14805,0.22836c0.3672,0.23421 0.75536,0.50433 1.1382,0.80358z" fill="#0077e7"/><path d="" fill="#0077e7"/></g></g></svg>