<svg version="1.1" xmlns="http://www.w3.org/2000/svg" xmlns:xlink="http://www.w3.org/1999/xlink" width="116.04149" height="70.64485" viewBox="0,0,116.04149,70.64485"><g transform="translate(-176.72398,-112.03883)"><g data-paper-data="{&quot;isPaintingLayer&quot;:true}" fill-rule="nonzero" stroke="none" stroke-linecap="butt" stroke-linejoin="miter" stroke-miterlimit="10" stroke-dasharray="" stroke-dashoffset="0" style="mix-blend-mode: normal"><path d="M236.90888,131.53003c0.67084,0 1.33704,0.00991 1.99806,0.02946c17.47329,0.51668 31.32447,7.76546 31.32447,16.6318c0,9.20177 -14.91901,16.66127 -33.32253,16.66127c-18.40352,0 -33.32253,-7.45952 -33.32253,-16.66127c0,-9.20176 14.91901,-16.66126 33.32253,-16.66126z" data-paper-data="{&quot;index&quot;:null}" fill="#ffffff" stroke-width="0"/><path d="M258.68299,181.78744c-3.93096,-0.98273 -2.94822,-4.91372 -2.94822,-4.91372l0.69175,-2.26824c0,-6.86582 0.81275,-13.46086 0.81275,-20.31861c0,0 0,-4.05195 4.05195,-4.05195c4.05195,0 4.05195,4.05195 4.05195,4.05195c0,6.86582 -0.81275,13.46086 -0.81275,20.31861l-0.93373,4.23373c0,0 -0.98274,3.93096 -4.91371,2.94822z" data-paper-data="{&quot;index&quot;:null}" fill="#ffffff" stroke-width="0.5"/><path d="M215.77752,182.68368c-4.05194,0 -3.32534,-4.29415 -3.32534,-4.29415l-0.48441,-8.45831c0,-9.14879 -0.85589,-6.4627 0.62568,-15.49775c0,0 0.66613,-3.99682 4.66295,-3.33068c3.99681,0.66614 3.33068,4.66296 3.33068,4.66296c-1.45204,8.5542 -0.87871,8.88313 -0.87871,17.55629v4.82529c0,0 0.12109,4.53635 -3.93084,4.53635z" data-paper-data="{&quot;index&quot;:null}" fill="#ffffff" stroke-width="0.5"/><path d="M182.11084,112.24385l3.24161,1.18225c12.3898,7.46464 16.21597,21.22648 28.44606,28.44606c0,0 3.47451,2.08471 1.38981,5.55923c-2.0847,3.47452 -5.55922,1.38981 -5.55922,1.38981c-3.84039,-2.33463 -8.5079,-5.46206 -11.48993,-8.88823c-6.3778,-7.3277 -8.15212,-14.2999 -16.95613,-19.55785l-1.63487,-0.44324c0,0 -3.84402,-1.28134 -2.56268,-5.12535c1.28133,-3.84401 5.12535,-2.56268 5.12535,-2.56268z" data-paper-data="{&quot;index&quot;:null}" fill="#ffffff" stroke-width="0.5"/><path d="M262.10398,145.33491c-2.23782,0 -4.05195,-1.81412 -4.05195,-4.05195c0,-2.23783 1.81412,-4.05195 4.05195,-4.05195c2.23783,0 4.05195,1.81412 4.05195,4.05195c0,2.23783 -1.81412,4.05195 -4.05195,4.05195z" data-paper-data="{&quot;index&quot;:null}" fill="#ffffff" stroke-width="0.5"/><path d="M273.07602,126.65356c7.85516,0 14.22303,4.91236 14.22303,10.97206c0,6.0597 -6.36788,10.97206 -14.22303,10.97206c-7.85516,0 -14.22303,-4.91236 -14.22303,-10.97206c0,-6.0597 6.36788,-10.97206 14.22303,-10.97206z" data-paper-data="{&quot;index&quot;:null}" fill="#ffffff" stroke-width="0"/><path d="M270.23141,134.76923c-4.05195,0 -4.05195,-4.05195 -4.05195,-4.05195l0.07868,-2.45632c-0.29149,-1.74295 -1.52788,-3.58694 -0.87446,-5.22885c0.14358,-0.36077 0.3098,-0.70855 0.49464,-1.04567l-0.2218,-0.08873l1.59044,-3.9761c0.57461,-1.53889 2.05792,-2.63473 3.79719,-2.63473c1.99174,0 3.64782,1.43707 3.98798,3.3309l0.79802,3.99012l-0.15302,0.0306l0.212,0.36478c0.00657,1.48766 0.01314,2.97533 0.01971,4.46299c0,0 0,2.20763 -1.62951,3.36386c-0.03629,0.65508 -0.40012,3.93905 -4.04793,3.93905z" data-paper-data="{&quot;index&quot;:null}" fill="#ffffff" stroke-width="0.5"/><path d="M280.08957,133.2629c-1.11892,0 -2.02597,-0.90706 -2.02597,-2.02597c0,-1.11892 0.90706,-2.02597 2.02597,-2.02597c1.11892,0 2.02597,0.90706 2.02597,2.02597c0,1.11892 -0.90706,2.02597 -2.02597,2.02597z" data-paper-data="{&quot;index&quot;:null}" fill="#010101" stroke-width="0.5"/><path d="M269.71551,125.93232v-0.31204c0,-1.26827 -0.69629,-5.69353 1.63706,-5.69353c1.21795,0 2.07108,3.54158 2.71507,4.50756c0,0 0.5619,0.84285 -0.28095,1.40476c-0.84285,0.5619 -1.40476,-0.28095 -1.40476,-0.28095c-0.06215,-0.09323 -0.30805,-0.43875 -0.58662,-0.88148c-0.02428,0.44629 -0.05382,0.80798 -0.05382,0.94365v0.31204c0,0 0,1.01299 -1.01299,1.01299c-1.01299,0 -1.01299,-1.01299 -1.01299,-1.01299z" data-paper-data="{&quot;index&quot;:null}" fill="#010101" stroke-width="0.5"/><path d="M283.52197,141.99991c-1.11892,0 -2.02597,-0.90706 -2.02597,-2.02597c0,-1.11892 0.90706,-2.02597 2.02597,-2.02597c1.11892,0 2.02597,0.90706 2.02597,2.02597c0,1.11892 -0.90706,2.02597 -2.02597,2.02597z" data-paper-data="{&quot;index&quot;:null}" fill="#e95b88" stroke-width="0.5"/><path d="M270.68239,140.64412c-0.35814,-0.35814 0,-0.71629 0,-0.71629l0.7884,-0.73387c2.92431,-0.10423 7.60719,0.17596 10.40549,1.5751c0,0 0.45303,0.2265 0.22651,0.67953c-0.22651,0.45302 -0.67954,0.2265 -0.67954,0.2265c-2.54496,-1.27248 -6.95593,-1.42592 -9.56481,-1.54526l-0.45976,0.51427c0,0 -0.35814,0.35814 -0.71629,0z" data-paper-data="{&quot;index&quot;:null}" fill="#000000" stroke-width="0.5"/><path d="M270.22201,137.47765c0,-0.50649 0.50649,-0.50649 0.50649,-0.50649l-0.14099,0.27999c1.87739,-3.11813 8.98253,-0.97643 11.42038,1.42854c0,0 0.35814,0.35814 0,0.71629c-0.35814,0.35814 -0.71629,0 -0.71629,0c-1.53862,-1.56394 -8.96234,-4.49146 -9.79805,-1.69181l-0.76506,0.27998c0,0 -0.50649,0 -0.50649,-0.50649z" data-paper-data="{&quot;index&quot;:null}" fill="#000000" stroke-width="0.5"/><path d="M273.22479,132.91469h0.93611c3.62721,0 6.18237,2.88348 8.96352,4.10994c0,0 0.45302,0.2265 0.2265,0.67953c-0.2265,0.45302 -0.67953,0.2265 -0.67953,0.2265c-2.62124,-1.41142 -5.1308,-4.00299 -8.5105,-4.00299h-0.93611c0,0 -0.50649,0 -0.50649,-0.50649c0,-0.50649 0.50649,-0.50649 0.50649,-0.50649z" data-paper-data="{&quot;index&quot;:null}" fill="#000000" stroke-width="0.5"/><path d="M292.76548,136.2295c0,0.50649 -0.50649,0.50649 -0.50649,0.50649l-0.15186,-0.02599c-2.33443,0.76229 -4.54147,0.71624 -6.79845,1.84473c0,0 -0.45303,0.22651 -0.67953,-0.2265c-0.22651,-0.45303 0.2265,-0.67953 0.2265,-0.67953c2.30377,-1.15189 4.57563,-1.09558 6.93113,-1.89969l0.4722,-0.02599c0,0 0.50649,0 0.50649,0.50649z" data-paper-data="{&quot;index&quot;:null}" fill="#000000" stroke-width="0.5"/><path d="M292.76547,139.34988c0,0.50649 -0.50649,0.50649 -0.50649,0.50649h-0.9361c-1.91512,0 -3.79911,0.27877 -5.61665,0.31204c0,0 -0.50649,0 -0.50649,-0.50649c0,-0.50649 0.50649,-0.50649 0.50649,-0.50649c1.74564,0.04659 3.75724,-0.31204 5.61665,-0.31204h0.9361c0,0 0.50649,0 0.50649,0.50649z" data-paper-data="{&quot;index&quot;:null}" fill="#000000" stroke-width="0.5"/><path d="M291.94695,142.6647c-0.50649,0 -0.50649,-0.50649 -0.50649,-0.50649l0.27999,0.14098c-2.56051,-1.37871 -3.73368,-0.60798 -6.63828,-0.5706c0,0 -0.50649,0 -0.50649,-0.50649c0,-0.50649 0.50649,-0.50649 0.50649,-0.50649c3.00468,0.04966 4.31698,-0.5459 7.0913,0.67753l0.27998,0.76506c0,0 0,0.50649 -0.50649,0.50649z" data-paper-data="{&quot;index&quot;:null}" fill="#000000" stroke-width="0.5"/></g></g></svg>